<svg version="1.1" viewBox="0.0 0.0 600.0 371.0" fill="none" stroke="none" stroke-linecap="square" stroke-miterlimit="10" width="600" height="371" xmlns:xlink="http://www.w3.org/1999/xlink" xmlns="http://www.w3.org/2000/svg"><path fill="#ffffff" d="M0 0L600.0 0L600.0 371.0L0 371.0L0 0Z" fill-rule="nonzero"/><path fill="#83c16d" d="M293.91162 54.040886C295.94003 53.95808 297.9699 53.916668 300.0 53.916668L300.0 203.18333Z" fill-rule="nonzero"/><path fill="#bd6bb3" d="M287.83337 54.413338C289.85672 54.247868 291.8832 54.12369 293.91162 54.040886L300.0 203.18333Z" fill-rule="nonzero"/><path fill="#57bbe2" d="M269.76044 57.011837C275.72607 55.77768 281.7617 54.90989 287.83337 54.413338L300.0 203.18333Z" fill-rule="nonzero"/><path fill="#5d9866" d="M263.8235 58.36691C265.79303 57.874893 267.77243 57.423107 269.76044 57.011837L300.0 203.18333Z" fill-rule="nonzero"/><path fill="#ef9d6f" d="M204.57259 88.40465C221.81586 74.068535 242.06761 63.80173 263.8235 58.36691L300.0 203.18333Z" fill-rule="nonzero"/><path fill="#5b8fa8" d="M199.97034 92.39252C201.47714 91.032074 203.01154 89.70251 204.57259 88.40465L300.0 203.18333Z" fill-rule="nonzero"/><path fill="#4ea72e" d="M187.19179 105.434456C191.18117 100.83045 195.44867 96.475 199.97034 92.39252L300.0 203.18333Z" fill-rule="nonzero"/><path fill="#a02b93" d="M183.29861 110.11709C184.56436 108.5299 185.86235 106.9687 187.19179 105.434456L300.0 203.18333Z" fill-rule="nonzero"/><path fill="#0f9ed5" d="M179.5997 114.95462C180.79965 113.31712 182.03288 111.70428 183.29861 110.11709L300.0 203.18333Z" fill-rule="nonzero"/><path fill="#186c24" d="M172.80887 125.061935C174.93405 121.60187 177.19955 118.22996 179.5997 114.95462L300.0 203.18333Z" fill-rule="nonzero"/><path fill="#e87331" d="M214.24564 325.3583C149.67207 280.03427 131.5191 192.2867 172.80887 125.061935L300.0 203.18333Z" fill-rule="nonzero"/><path fill="#145f82" d="M300.0 53.916668C364.36713 53.916668 421.48474 95.178154 441.708 156.28581C461.93127 217.39348 440.70477 284.58255 389.04538 322.9809C337.386 361.37927 266.93024 362.33752 214.24564 325.3583L300.0 203.18333Z" fill-rule="nonzero"/><path fill="#000000" d="M26.534374 60.510414Q26.096874 60.510414 25.190624 60.447914Q24.315624 60.385414 23.8625 60.385414L23.440624 60.385414Q23.45625 61.197914 23.596874 63.010414Q23.7375 64.697914 23.7375 65.635414Q23.7375 65.854164 23.76875 66.27604Q23.815624 66.68229 23.815624 66.885414Q23.815624 67.291664 23.690624 67.572914Q23.51875 67.96354 23.175 67.96354Q22.940624 67.96354 22.753124 67.80729Q22.565624 67.635414 22.565624 67.36979Q22.565624 67.291664 22.596874 67.11979Q22.628124 66.93229 22.628124 66.854164Q22.628124 66.55729 22.58125 65.99479Q22.55 65.416664 22.55 65.11979Q22.55 64.27604 22.409374 62.760414Q22.26875 61.11979 22.253124 60.416664L21.721874 60.416664Q20.440624 60.416664 19.70625 60.229164Q19.2375 60.104164 19.2375 59.65104Q19.2375 59.40104 19.378124 59.229164Q19.565624 59.02604 19.83125 59.041664Q20.034374 59.05729 20.76875 59.15104Q21.3625 59.21354 21.721874 59.21354Q22.065624 59.21354 22.784374 59.197914Q23.503124 59.18229 23.846874 59.18229Q24.3 59.18229 25.190624 59.24479Q26.08125 59.30729 26.534374 59.30729Q26.784374 59.30729 26.95625 59.49479Q27.128124 59.666664 27.128124 59.916664Q27.128124 60.166664 26.95625 60.33854Q26.784374 60.510414 26.534374 60.510414ZM30.096874 68.18229Q28.784374 68.18229 27.95625 67.52604Q27.065624 66.791664 27.065624 65.479164Q27.065624 63.947914 27.8 62.916664Q28.596874 61.791664 29.940624 61.791664Q30.909374 61.791664 31.534374 62.11979Q32.284374 62.52604 32.284374 63.36979Q32.284374 63.947914 31.628124 64.43229Q31.33125 64.635414 30.378124 65.08854L28.14375 66.15104Q28.471874 66.635414 28.95625 66.885414Q29.45625 67.11979 30.096874 67.11979Q30.503124 67.11979 31.05 66.979164Q31.7375 66.77604 31.940624 66.46354Q32.14375 66.15104 32.3625 66.15104Q32.58125 66.15104 32.7375 66.30729Q32.89375 66.46354 32.89375 66.666664Q32.89375 67.322914 31.846874 67.791664Q30.95625 68.18229 30.096874 68.18229ZM29.940624 62.854164Q29.221874 62.854164 28.753124 63.40104Q28.284374 63.947914 28.05 65.072914L29.846874 64.21354Q30.909374 63.697914 31.3625 63.322914Q30.846874 62.854164 29.940624 62.854164ZM37.8625 68.33854Q37.3625 68.33854 37.284374 67.77604L37.128124 66.49479Q37.05 65.80729 37.05 65.21354Q37.05 65.05729 37.065624 64.666664Q37.08125 64.260414 37.08125 64.104164Q37.08125 62.83854 36.6125 62.83854Q35.95625 62.83854 35.3625 63.61979Q34.83125 64.322914 34.51875 65.40104Q34.503124 65.635414 34.471874 65.979164Q34.425 66.27604 34.425 66.55729Q34.425 66.729164 34.45625 67.08854Q34.503124 67.43229 34.503124 67.604164Q34.503124 67.86979 34.33125 68.02604Q34.175 68.197914 33.925 68.197914Q33.675 68.197914 33.503124 68.02604Q33.346874 67.86979 33.346874 67.604164Q33.346874 67.43229 33.315624 67.08854Q33.284374 66.729164 33.284374 66.55729Q33.284374 65.947914 33.3625 64.885414Q33.440624 63.80729 33.440624 63.197914Q33.440624 63.010414 33.425 62.65104Q33.409374 62.27604 33.409374 62.08854Q33.409374 61.83854 33.565624 61.68229Q33.7375 61.510414 33.9875 61.510414Q34.51875 61.510414 34.58125 62.27604L34.596874 62.96354Q35.58125 61.65104 36.6125 61.65104Q37.55 61.65104 37.925 62.479164Q38.175 63.02604 38.20625 64.104164L38.20625 64.697914L38.190624 65.24479Q38.190624 65.729164 38.315624 66.510414Q38.440624 67.27604 38.440624 67.74479Q38.440624 68.010414 38.26875 68.166664Q38.1125 68.33854 37.8625 68.33854ZM43.284374 62.916664Q43.159374 62.916664 42.9875 62.916664Q42.83125 62.90104 42.70625 62.90104Q42.565624 62.90104 41.909374 62.99479L42.01875 66.447914L42.01875 66.71354L42.034374 67.010414Q42.05 68.291664 41.409374 68.291664Q41.175 68.291664 41.003124 68.135414Q40.83125 67.99479 40.83125 67.760414Q40.83125 67.541664 40.846874 67.104164Q40.878124 66.65104 40.878124 66.416664L40.753124 62.99479Q40.33125 62.979164 39.45625 62.90104Q38.925 62.822914 38.925 62.322914Q38.925 62.05729 39.08125 61.90104Q39.253124 61.729164 39.4875 61.729164L40.721874 61.822914Q40.721874 61.52604 40.690624 61.02604Q40.675 60.52604 40.675 60.291664Q40.675 60.05729 40.846874 59.90104Q41.01875 59.729164 41.253124 59.729164Q41.784374 59.729164 41.878124 60.58854Q41.89375 60.80729 41.89375 61.11979L41.878124 61.447914L41.878124 61.822914Q42.596874 61.729164 42.70625 61.729164Q43.315624 61.729164 43.503124 61.77604Q43.8625 61.90104 43.8625 62.33854Q43.8625 62.58854 43.690624 62.760414Q43.534374 62.916664 43.284374 62.916664Z" fill-rule="nonzero"/><path fill="#9e9e9e" d="M22.675 88.916664L21.503124 88.916664L20.346874 88.916664Q19.940624 88.916664 19.76875 88.86979Q19.471874 88.760414 19.471874 88.416664Q19.471874 87.822914 20.39375 87.822914L20.675 87.83854L20.925 87.83854Q20.925 87.55729 20.8625 87.010414Q20.815624 86.46354 20.815624 86.18229Q20.815624 85.447914 20.95625 83.916664Q21.08125 82.43229 21.08125 81.65104Q20.284374 82.260414 20.08125 82.260414Q19.846874 82.260414 19.659374 82.08854Q19.4875 81.916664 19.4875 81.68229Q19.4875 81.416664 20.003124 81.010414Q20.315624 80.791664 20.89375 80.30729Q21.409374 79.77604 21.878124 79.77604Q22.26875 79.77604 22.26875 80.229164Q22.26875 80.36979 22.2375 80.635414Q22.20625 80.90104 22.20625 81.041664Q22.20625 81.229164 22.221874 81.61979Q22.2375 82.010414 22.2375 82.21354Q22.2375 82.86979 22.096874 84.197914Q21.95625 85.52604 21.95625 86.18229Q21.95625 86.52604 22.003124 87.010414Q22.05 87.49479 22.065624 87.80729L22.675 87.791664Q22.925 87.791664 23.08125 87.96354Q23.2375 88.11979 23.2375 88.354164Q23.2375 88.604164 23.08125 88.760414Q22.925 88.916664 22.675 88.916664ZM25.1125 89.46354Q24.815624 89.46354 24.596874 89.24479Q24.39375 89.041664 24.39375 88.729164Q24.39375 88.43229 24.596874 88.229164Q24.815624 88.010414 25.1125 88.010414Q25.409374 88.010414 25.628124 88.229164Q25.846874 88.43229 25.846874 88.729164Q25.846874 89.041664 25.628124 89.24479Q25.409374 89.46354 25.1125 89.46354ZM31.14375 88.21354Q30.721874 88.52604 29.76875 88.96354Q28.721874 89.479164 28.315624 89.479164Q28.08125 89.479164 27.925 89.291664Q27.76875 89.11979 27.76875 88.885414Q27.76875 88.541664 28.159374 88.36979L29.14375 88.02604Q30.05 87.666664 30.565624 87.18229Q31.096874 86.697914 31.534374 85.822914L31.784374 85.30729Q31.45625 85.49479 30.940624 85.666664Q30.425 85.822914 30.1125 85.822914Q29.003124 85.822914 28.190624 85.197914Q27.20625 84.447914 27.20625 83.072914Q27.20625 81.43229 28.221874 80.61979Q29.08125 79.916664 30.471874 79.916664Q31.55 79.916664 32.409374 80.791664Q33.315624 81.729164 33.315624 83.041664Q33.33125 84.52604 32.76875 85.93229Q32.175 87.447914 31.14375 88.21354ZM30.315624 80.916664Q29.33125 80.916664 28.83125 81.43229Q28.33125 81.93229 28.33125 82.96354Q28.33125 83.822914 28.940624 84.291664Q29.471874 84.71354 30.284374 84.71354Q30.753124 84.71354 31.253124 84.43229Q31.4875 84.30729 32.096874 83.854164Q32.175 83.33854 32.175 83.041664Q32.175 82.30729 31.55 81.61979Q30.940624 80.916664 30.315624 80.916664ZM36.14375 82.822914Q35.33125 82.822914 34.846874 82.24479Q34.409374 81.71354 34.409374 80.885414Q34.409374 80.30729 35.003124 79.791664Q35.58125 79.291664 36.159374 79.291664Q37.01875 79.291664 37.51875 79.854164Q38.003124 80.40104 38.003124 81.260414Q38.003124 81.979164 37.39375 82.416664Q36.8625 82.822914 36.14375 82.822914ZM40.784374 80.30729Q40.565624 80.666664 40.315624 81.24479L39.909374 82.197914L38.7375 84.68229L37.425 87.447914Q37.253124 87.90104 36.83125 88.77604Q36.675 89.08854 36.39375 89.08854Q36.20625 89.08854 36.05 88.947914Q35.89375 88.822914 35.89375 88.604164Q35.89375 88.52604 35.925 88.416664Q36.221874 87.61979 36.8625 86.354164Q37.6125 84.83854 37.846874 84.30729L39.425 80.791664Q39.7375 80.010414 40.003124 79.729164Q40.190624 79.52604 40.378124 79.52604Q40.58125 79.52604 40.7375 79.68229Q40.89375 79.822914 40.89375 80.02604Q40.89375 80.15104 40.784374 80.30729ZM40.940624 89.02604Q40.14375 89.02604 39.6125 88.55729Q39.065624 88.05729 39.065624 87.260414Q39.065624 86.385414 39.55 85.822914Q40.065624 85.21354 40.925 85.21354Q41.721874 85.21354 42.315624 85.65104Q42.971874 86.15104 42.971874 86.93229Q42.971874 87.83854 42.39375 88.43229Q41.83125 89.02604 40.940624 89.02604ZM36.14375 80.27604Q35.878124 80.27604 35.64375 80.447914Q35.39375 80.65104 35.39375 80.885414Q35.39375 81.354164 35.58125 81.604164Q35.76875 81.83854 36.14375 81.83854Q36.45625 81.83854 36.721874 81.697914Q37.01875 81.52604 37.01875 81.260414Q37.01875 80.760414 36.8 80.52604Q36.58125 80.27604 36.14375 80.27604ZM40.925 86.197914Q40.503124 86.197914 40.253124 86.510414Q40.05 86.80729 40.05 87.260414Q40.05 87.65104 40.3 87.854164Q40.55 88.041664 41.065624 88.041664Q41.534374 88.041664 41.753124 87.77604Q41.9875 87.49479 41.9875 86.93229Q41.9875 86.58854 41.628124 86.385414Q41.315624 86.197914 40.925 86.197914Z" fill-rule="nonzero"/><path stroke="#757575" stroke-width="1.0" stroke-linecap="butt" d="M18.55 73.416664L144.73334 73.416664L279.81927 62.823353" fill-rule="nonzero"/><path fill="#9e9e9e" d="M281.81927 62.823353C281.81927 61.718784 280.92386 60.823353 279.81927 60.823353C278.71472 60.823353 277.81927 61.718784 277.81927 62.823353C277.81927 63.92792 278.71472 64.82336 279.81927 64.82336C280.92386 64.82336 281.81927 63.92792 281.81927 62.823353" fill-rule="nonzero"/><path fill="#000000" d="M28.065624 107.40104Q27.753124 107.40104 27.55 107.072914Q27.378124 106.791664 27.2375 106.135414L27.01875 105.135414Q26.784374 104.197914 26.26875 100.99479L25.096874 104.52604L24.7375 105.635414Q24.534374 106.30729 24.3 106.729164Q24.065624 107.166664 23.64375 107.166664Q23.3 107.166664 23.096874 106.791664Q22.971874 106.541664 22.8625 106.166664L22.690624 105.510414Q22.096874 103.447914 21.64375 101.08854L21.440624 102.135414L20.690624 105.229164Q20.64375 105.77604 20.39375 106.83854Q20.221874 107.291664 19.815624 107.291664Q19.51875 107.291664 19.346874 107.08854Q19.20625 106.916664 19.20625 106.65104Q19.20625 105.68229 19.6125 104.260414L20.253124 101.90104L20.596874 100.041664Q20.846874 98.760414 21.14375 98.354164Q21.378124 98.010414 21.721874 98.010414Q22.096874 98.010414 22.284374 98.447914Q22.51875 98.96354 22.784374 100.572914Q23.096874 102.510414 23.753124 104.74479Q24.6125 102.49479 25.253124 100.041664L25.425 99.197914Q25.534374 98.68229 25.70625 98.354164Q25.925 97.93229 26.33125 97.93229Q26.83125 97.93229 27.096874 98.90104Q27.190624 99.229164 27.315624 100.27604Q27.675 102.93229 28.190624 104.80729L28.471874 105.80729Q28.690624 106.61979 28.690624 106.80729Q28.690624 107.05729 28.503124 107.229164Q28.315624 107.40104 28.065624 107.40104ZM33.940624 107.30729Q33.83125 107.30729 33.534374 107.041664Q33.26875 106.80729 33.14375 106.61979Q32.58125 106.916664 32.14375 107.072914Q31.721874 107.229164 31.440624 107.229164Q30.065624 107.229164 29.440624 106.46354Q28.846874 105.729164 28.846874 104.229164Q28.846874 102.80729 29.815624 101.80729Q30.8 100.791664 32.159374 100.791664Q32.659374 100.791664 33.3 101.05729Q34.096874 101.385414 34.096874 101.854164Q34.096874 102.010414 33.971874 102.135414Q33.925 102.354164 33.878124 102.86979Q33.846874 103.36979 33.846874 104.166664Q33.846874 104.90104 33.940624 105.322914Q34.003124 105.572914 34.315624 106.354164Q34.3625 106.46354 34.45625 106.666664L34.4875 106.760414Q34.4875 106.99479 34.315624 107.15104Q34.159374 107.30729 33.940624 107.30729ZM32.721874 103.229164Q32.721874 102.979164 32.753124 102.68229Q32.784374 102.385414 32.846874 102.05729Q32.628124 101.947914 32.471874 101.90104Q32.33125 101.83854 32.2375 101.83854Q31.315624 101.83854 30.659374 102.58854Q30.003124 103.322914 30.003124 104.291664Q30.003124 105.24479 30.346874 105.729164Q30.690624 106.21354 31.3625 106.21354Q31.925 106.21354 32.315624 105.99479Q32.534374 105.885414 32.909374 105.55729Q32.721874 104.010414 32.721874 103.229164ZM39.284374 101.916664Q39.159374 101.916664 38.9875 101.916664Q38.83125 101.90104 38.70625 101.90104Q38.565624 101.90104 37.909374 101.99479L38.01875 105.447914L38.01875 105.71354L38.034374 106.010414Q38.05 107.291664 37.409374 107.291664Q37.175 107.291664 37.003124 107.135414Q36.83125 106.99479 36.83125 106.760414Q36.83125 106.541664 36.846874 106.104164Q36.878124 105.65104 36.878124 105.416664L36.753124 101.99479Q36.33125 101.979164 35.45625 101.90104Q34.925 101.822914 34.925 101.322914Q34.925 101.05729 35.08125 100.90104Q35.253124 100.729164 35.4875 100.729164L36.721874 100.822914Q36.721874 100.52604 36.690624 100.02604Q36.675 99.52604 36.675 99.291664Q36.675 99.05729 36.846874 98.90104Q37.01875 98.729164 37.253124 98.729164Q37.784374 98.729164 37.878124 99.58854Q37.89375 99.80729 37.89375 100.11979L37.878124 100.447914L37.878124 100.822914Q38.596874 100.729164 38.70625 100.729164Q39.315624 100.729164 39.503124 100.77604Q39.8625 100.90104 39.8625 101.33854Q39.8625 101.58854 39.690624 101.760414Q39.534374 101.916664 39.284374 101.916664ZM44.096874 107.18229Q42.784374 107.18229 41.95625 106.52604Q41.065624 105.791664 41.065624 104.479164Q41.065624 102.947914 41.8 101.916664Q42.596874 100.791664 43.940624 100.791664Q44.909374 100.791664 45.534374 101.11979Q46.284374 101.52604 46.284374 102.36979Q46.284374 102.947914 45.628124 103.43229Q45.33125 103.635414 44.378124 104.08854L42.14375 105.15104Q42.471874 105.635414 42.95625 105.885414Q43.45625 106.11979 44.096874 106.11979Q44.503124 106.11979 45.05 105.979164Q45.7375 105.77604 45.940624 105.46354Q46.14375 105.15104 46.3625 105.15104Q46.58125 105.15104 46.7375 105.30729Q46.89375 105.46354 46.89375 105.666664Q46.89375 106.322914 45.846874 106.791664Q44.95625 107.18229 44.096874 107.18229ZM43.940624 101.854164Q43.221874 101.854164 42.753124 102.40104Q42.284374 102.947914 42.05 104.072914L43.846874 103.21354Q44.909374 102.697914 45.3625 102.322914Q44.846874 101.854164 43.940624 101.854164ZM51.315624 102.40104Q51.003124 102.40104 50.8625 102.18229Q50.784374 102.041664 50.721874 101.55729Q50.284374 101.666664 49.3625 101.96354Q48.425 102.33854 48.409374 102.885414Q48.596874 102.947914 48.753124 102.979164Q50.1125 103.229164 50.76875 103.65104Q51.721874 104.260414 51.721874 105.43229Q51.721874 106.385414 50.89375 106.86979Q50.20625 107.27604 49.159374 107.27604Q48.39375 107.27604 47.690624 107.010414Q46.784374 106.68229 46.784374 106.08854Q46.784374 105.854164 46.971874 105.68229Q47.159374 105.510414 47.39375 105.510414Q47.58125 105.510414 47.8625 105.791664Q48.003124 105.93229 48.503124 106.010414Q48.89375 106.08854 49.159374 106.08854Q49.64375 106.08854 50.01875 105.96354Q50.565624 105.791664 50.565624 105.43229Q50.565624 104.635414 49.45625 104.354164L48.846874 104.21354Q48.065624 104.041664 47.7375 103.822914Q47.26875 103.49479 47.26875 102.822914Q47.26875 101.604164 48.425 101.072914Q48.76875 100.916664 49.534374 100.697914Q50.315624 100.479164 50.659374 100.322914Q50.89375 100.229164 51.175 100.229164Q51.425 100.229164 51.58125 100.40104Q51.753124 100.55729 51.753124 100.822914Q51.753124 100.979164 51.815624 101.30729Q51.89375 101.635414 51.89375 101.80729Q51.89375 102.072914 51.721874 102.24479Q51.565624 102.40104 51.315624 102.40104ZM53.58125 107.447914Q53.378124 107.447914 53.20625 107.291664Q53.05 107.15104 53.05 106.93229Q53.05 106.83854 53.08125 106.729164Q53.534374 105.479164 54.8 103.104164Q56.065624 100.729164 56.534374 99.46354Q57.3 97.36979 57.690624 97.385414Q57.909374 97.40104 58.065624 97.55729Q58.2375 97.697914 58.2375 97.90104Q58.2375 98.041664 58.175 98.229164L57.51875 99.822914Q57.128124 100.90104 56.39375 102.322914L55.128124 104.74479L54.065624 107.104164Q53.909374 107.447914 53.58125 107.447914ZM65.03438 99.21354Q64.925 99.21354 64.81563 99.166664Q64.08125 98.90104 62.89375 98.90104Q62.503124 98.90104 61.971874 98.96354Q61.45625 99.010414 60.815624 99.135414L60.8 101.666664Q61.940624 101.354164 62.503124 101.354164Q63.409374 101.354164 64.37813 101.46354Q64.925 101.52604 64.925 102.05729Q64.925 102.322914 64.75313 102.49479Q64.58125 102.666664 64.33125 102.666664Q64.03438 102.666664 63.425 102.61979Q62.815624 102.572914 62.503124 102.572914Q62.1125 102.572914 60.784374 102.90104L60.7375 106.947914Q60.7375 107.197914 60.565624 107.36979Q60.409374 107.541664 60.14375 107.541664Q59.89375 107.541664 59.721874 107.36979Q59.565624 107.197914 59.565624 106.947914Q59.565624 105.791664 59.6125 103.479164Q59.659374 101.166664 59.659374 100.010414Q59.659374 99.74479 59.64375 99.229164Q59.628124 98.71354 59.628124 98.447914Q59.628124 98.197914 59.784374 98.02604Q59.95625 97.83854 60.221874 97.83854Q60.409374 97.83854 60.565624 97.947914Q61.284374 97.822914 61.8625 97.760414Q62.440624 97.697914 62.89375 97.697914Q63.565624 97.697914 64.425 97.885414Q65.6125 98.166664 65.6125 98.58854Q65.6125 98.822914 65.45625 99.010414Q65.28438 99.21354 65.03438 99.21354ZM70.94063 107.30729Q70.83125 107.30729 70.53438 107.041664Q70.26875 106.80729 70.14375 106.61979Q69.58125 106.916664 69.14375 107.072914Q68.72188 107.229164 68.44063 107.229164Q67.06563 107.229164 66.44063 106.46354Q65.84688 105.729164 65.84688 104.229164Q65.84688 102.80729 66.81563 101.80729Q67.8 100.791664 69.15938 100.791664Q69.65938 100.791664 70.3 101.05729Q71.09688 101.385414 71.09688 101.854164Q71.09688 102.010414 70.97188 102.135414Q70.925 102.354164 70.87813 102.86979Q70.84688 103.36979 70.84688 104.166664Q70.84688 104.90104 70.94063 105.322914Q71.00313 105.572914 71.31563 106.354164Q71.3625 106.46354 71.45625 106.666664L71.4875 106.760414Q71.4875 106.99479 71.31563 107.15104Q71.15938 107.30729 70.94063 107.30729ZM69.72188 103.229164Q69.72188 102.979164 69.75313 102.68229Q69.78438 102.385414 69.84688 102.05729Q69.62813 101.947914 69.47188 101.90104Q69.33125 101.83854 69.2375 101.83854Q68.31563 101.83854 67.65938 102.58854Q67.00313 103.322914 67.00313 104.291664Q67.00313 105.24479 67.34688 105.729164Q67.69063 106.21354 68.3625 106.21354Q68.925 106.21354 69.31563 105.99479Q69.53438 105.885414 69.90938 105.55729Q69.72188 104.010414 69.72188 103.229164ZM79.8 107.40104Q79.33125 107.40104 79.2375 106.885414Q79.14375 106.24479 79.03438 105.072914L78.83125 103.260414Q78.76875 102.854164 78.62813 102.46354Q78.44063 101.947914 78.20625 101.947914Q77.9875 101.947914 77.39375 102.30729Q76.83125 102.65104 76.65938 102.854164Q76.64375 103.40104 76.69063 103.96354L76.8625 105.52604Q76.97188 106.447914 76.97188 107.05729Q76.97188 107.30729 76.8 107.479164Q76.64375 107.65104 76.39375 107.65104Q76.14375 107.65104 75.97188 107.479164Q75.81563 107.30729 75.81563 107.05729Q75.81563 106.33854 75.675 104.96354Q75.53438 103.572914 75.53438 102.854164Q75.53438 102.24479 75.3625 101.90104Q74.95625 102.08854 74.53438 102.510414L73.83125 103.27604Q73.7375 103.416664 73.53438 103.65104Q73.53438 103.99479 73.47188 104.68229Q73.40938 105.36979 73.40938 105.697914Q73.40938 105.86979 73.45625 106.197914Q73.51875 106.510414 73.51875 106.65104Q73.51875 106.885414 73.33125 107.041664Q73.15938 107.21354 72.925 107.21354Q72.25313 107.21354 72.25313 105.71354Q72.25313 105.354164 72.31563 104.666664Q72.39375 103.96354 72.39375 103.604164Q72.39375 103.30729 72.33125 102.68229Q72.28438 102.05729 72.28438 101.74479Q72.28438 100.416664 72.87813 100.416664Q73.09688 100.416664 73.28438 100.61979Q73.4875 100.80729 73.4875 101.041664Q73.4875 101.15104 73.45625 101.385414Q73.425 101.61979 73.425 101.74479L73.44063 102.36979Q73.7375 101.729164 74.33125 101.229164Q74.925 100.729164 75.34688 100.729164Q76.26875 100.729164 76.6125 101.635414Q76.925 101.21354 77.3625 100.99479Q77.81563 100.77604 78.39375 100.77604Q79.37813 100.77604 79.7375 101.83854Q79.8 102.041664 79.97188 103.479164Q80.12813 104.49479 80.39375 106.83854Q80.40938 107.072914 80.2375 107.229164Q80.06563 107.40104 79.8 107.40104ZM81.4875 99.49479Q81.20625 99.49479 81.00313 99.30729Q80.8 99.104164 80.8 98.822914Q80.8 98.541664 81.00313 98.33854Q81.20625 98.135414 81.4875 98.135414Q81.76875 98.135414 81.97188 98.33854Q82.175 98.541664 82.175 98.822914Q82.175 99.104164 81.97188 99.30729Q81.76875 99.49479 81.4875 99.49479ZM81.75313 104.260414Q81.75313 104.604164 81.76875 105.30729Q81.78438 106.010414 81.78438 106.354164Q81.78438 106.61979 81.62813 106.791664Q81.47188 106.947914 81.22188 106.947914Q80.95625 106.947914 80.8 106.791664Q80.64375 106.61979 80.64375 106.354164Q80.64375 106.010414 80.6125 105.30729Q80.59688 104.604164 80.59688 104.260414Q80.59688 103.697914 80.65938 102.885414Q80.72188 102.05729 80.72188 101.510414Q80.72188 101.24479 80.87813 101.08854Q81.03438 100.916664 81.28438 100.916664Q81.55 100.916664 81.70625 101.08854Q81.8625 101.24479 81.8625 101.510414Q81.8625 102.05729 81.8 102.885414Q81.75313 103.697914 81.75313 104.260414ZM85.84688 102.30729L85.76875 105.229164Q85.76875 105.68229 85.72188 106.58854Q85.65938 107.166664 85.14375 107.166664Q84.56563 107.166664 84.56563 106.572914Q84.56563 105.854164 84.62813 104.447914Q84.70625 103.02604 84.70625 102.30729Q84.70625 101.385414 84.72188 100.197914Q84.75313 98.99479 84.75313 98.072914Q84.75313 97.49479 85.33125 97.49479Q85.90938 97.49479 85.90938 98.072914Q85.90938 98.99479 85.87813 100.197914Q85.84688 101.385414 85.84688 102.30729ZM93.47188 101.68229L91.44063 106.072914Q90.69063 107.666664 90.3 108.74479L89.90938 109.885414Q89.75313 110.30729 89.37813 110.30729Q89.14375 110.30729 88.95625 110.15104Q88.78438 109.99479 88.78438 109.74479Q88.78438 109.166664 90.05 106.354164L87.95625 102.322914L87.69063 101.885414Q87.51875 101.61979 87.51875 101.43229Q87.51875 101.197914 87.70625 101.02604Q87.89375 100.83854 88.12813 100.83854Q88.39375 100.83854 88.53438 101.041664Q89.53438 102.416664 90.675 104.979164L91.55 102.947914Q92.01875 101.90104 92.45625 101.15104Q92.64375 100.822914 92.94063 100.822914Q93.175 100.822914 93.3625 100.99479Q93.55 101.166664 93.55 101.40104Q93.55 101.52604 93.47188 101.68229Z" fill-rule="nonzero"/><path fill="#9e9e9e" d="M25.315624 120.260414L24.784374 120.885414Q24.01875 121.77604 23.378124 123.041664L22.315624 125.385414Q22.20625 125.635414 21.815624 126.729164Q21.51875 127.604164 21.253124 128.02603Q21.08125 128.30728 20.784374 128.30728Q20.55 128.30728 20.3625 128.1354Q20.190624 127.979164 20.190624 127.74479Q20.190624 127.52604 20.565624 126.604164L21.878124 123.36979Q22.753124 121.46354 23.675 120.416664L23.784374 120.291664L20.846874 120.24479L19.534374 120.197914Q18.95625 120.15104 18.95625 119.635414Q18.95625 119.40104 19.1125 119.24479Q19.284374 119.072914 19.534374 119.072914Q20.26875 119.072914 21.753124 119.11979Q23.2375 119.166664 23.971874 119.166664L25.05 119.166664Q25.659374 119.166664 25.659374 119.541664Q25.659374 119.822914 25.315624 120.260414ZM27.1125 128.46353Q26.815624 128.46353 26.596874 128.24478Q26.39375 128.04166 26.39375 127.729164Q26.39375 127.43229 26.596874 127.229164Q26.815624 127.010414 27.1125 127.010414Q27.409374 127.010414 27.628124 127.229164Q27.846874 127.43229 27.846874 127.729164Q27.846874 128.04166 27.628124 128.24478Q27.409374 128.46353 27.1125 128.46353ZM32.675 127.916664L31.503124 127.916664L30.346874 127.916664Q29.940624 127.916664 29.76875 127.86979Q29.471874 127.760414 29.471874 127.416664Q29.471874 126.822914 30.39375 126.822914L30.675 126.83854L30.925 126.83854Q30.925 126.55729 30.8625 126.010414Q30.815624 125.46354 30.815624 125.18229Q30.815624 124.447914 30.95625 122.916664Q31.08125 121.43229 31.08125 120.65104Q30.284374 121.260414 30.08125 121.260414Q29.846874 121.260414 29.659374 121.08854Q29.4875 120.916664 29.4875 120.68229Q29.4875 120.416664 30.003124 120.010414Q30.315624 119.791664 30.89375 119.30729Q31.409374 118.77604 31.878124 118.77604Q32.26875 118.77604 32.26875 119.229164Q32.26875 119.36979 32.2375 119.635414Q32.20625 119.90104 32.20625 120.041664Q32.20625 120.229164 32.221874 120.61979Q32.2375 121.010414 32.2375 121.21354Q32.2375 121.86979 32.096874 123.197914Q31.95625 124.52604 31.95625 125.18229Q31.95625 125.52604 32.003124 126.010414Q32.05 126.49479 32.065624 126.80729L32.675 126.791664Q32.925 126.791664 33.08125 126.96354Q33.2375 127.11979 33.2375 127.354164Q33.2375 127.604164 33.08125 127.760414Q32.925 127.916664 32.675 127.916664ZM36.14375 121.822914Q35.33125 121.822914 34.846874 121.24479Q34.409374 120.71354 34.409374 119.885414Q34.409374 119.30729 35.003124 118.791664Q35.58125 118.291664 36.159374 118.291664Q37.01875 118.291664 37.51875 118.854164Q38.003124 119.40104 38.003124 120.260414Q38.003124 120.979164 37.39375 121.416664Q36.8625 121.822914 36.14375 121.822914ZM40.784374 119.30729Q40.565624 119.666664 40.315624 120.24479L39.909374 121.197914L38.7375 123.68229L37.425 126.447914Q37.253124 126.90104 36.83125 127.77604Q36.675 128.08853 36.39375 128.08853Q36.20625 128.08853 36.05 127.947914Q35.89375 127.822914 35.89375 127.604164Q35.89375 127.52604 35.925 127.416664Q36.221874 126.61979 36.8625 125.354164Q37.6125 123.83854 37.846874 123.30729L39.425 119.791664Q39.7375 119.010414 40.003124 118.729164Q40.190624 118.52604 40.378124 118.52604Q40.58125 118.52604 40.7375 118.68229Q40.89375 118.822914 40.89375 119.02604Q40.89375 119.15104 40.784374 119.30729ZM40.940624 128.02603Q40.14375 128.02603 39.6125 127.55729Q39.065624 127.05729 39.065624 126.260414Q39.065624 125.385414 39.55 124.822914Q40.065624 124.21354 40.925 124.21354Q41.721874 124.21354 42.315624 124.65104Q42.971874 125.15104 42.971874 125.93229Q42.971874 126.83854 42.39375 127.43229Q41.83125 128.02603 40.940624 128.02603ZM36.14375 119.27604Q35.878124 119.27604 35.64375 119.447914Q35.39375 119.65104 35.39375 119.885414Q35.39375 120.354164 35.58125 120.604164Q35.76875 120.83854 36.14375 120.83854Q36.45625 120.83854 36.721874 120.697914Q37.01875 120.52604 37.01875 120.260414Q37.01875 119.760414 36.8 119.52604Q36.58125 119.27604 36.14375 119.27604ZM40.925 125.197914Q40.503124 125.197914 40.253124 125.510414Q40.05 125.80729 40.05 126.260414Q40.05 126.65104 40.3 126.854164Q40.55 127.041664 41.065624 127.041664Q41.534374 127.041664 41.753124 126.77604Q41.9875 126.49479 41.9875 125.93229Q41.9875 125.58854 41.628124 125.385414Q41.315624 125.197914 40.925 125.197914Z" fill-rule="nonzero"/><path stroke="#757575" stroke-width="1.0" stroke-linecap="butt" d="M18.55 112.416664L144.73334 112.416664L235.88052 76.704575" fill-rule="nonzero"/><path fill="#9e9e9e" d="M237.88052 76.704575C237.88052 75.6 236.98509 74.704575 235.88052 74.704575C234.77594 74.704575 233.88052 75.6 233.88052 76.704575C233.88052 77.80914 234.77594 78.704575 235.88052 78.704575C236.98509 78.704575 237.88052 77.80914 237.88052 76.704575" fill-rule="nonzero"/><path fill="#000000" d="M27.08125 137.66667Q26.9875 137.90105 26.9875 138.38542Q26.9875 138.5573 27.003124 138.90105Q27.01875 139.2448 27.01875 139.41667Q27.01875 140.01042 26.909374 141.16667Q26.815624 142.32292 26.815624 142.91667Q26.815624 143.35417 26.878124 144.2448Q26.940624 145.13542 26.940624 145.58855Q26.940624 145.83855 26.76875 145.9948Q26.6125 146.16667 26.378124 146.16667Q26.14375 146.16667 25.971874 145.9948Q25.815624 145.83855 25.815624 145.58855Q25.815624 145.13542 25.753124 144.2448Q25.690624 143.35417 25.690624 142.91667Q25.690624 142.4948 25.721874 142.04167Q24.721874 142.07292 23.2375 142.35417L20.784374 142.82292Q20.784374 143.35417 20.675 144.32292Q20.565624 145.29167 20.565624 145.82292Q20.565624 146.07292 20.39375 146.22917Q20.2375 146.40105 20.003124 146.40105Q19.76875 146.40105 19.596874 146.22917Q19.440624 146.07292 19.440624 145.82292Q19.440624 145.21355 19.534374 143.97917Q19.64375 142.7448 19.64375 142.1198Q19.64375 141.79167 19.6125 141.15105Q19.596874 140.4948 19.596874 140.16667Q19.596874 139.69792 19.659374 138.77605Q19.721874 137.85417 19.721874 137.38542Q19.721874 137.13542 19.878124 136.97917Q20.034374 136.8073 20.284374 136.8073Q20.51875 136.8073 20.675 136.97917Q20.846874 137.13542 20.846874 137.38542Q20.846874 137.85417 20.784374 138.79167Q20.721874 139.72917 20.721874 140.19792L20.753124 141.66667L23.26875 141.19792Q24.76875 140.91667 25.8 140.90105Q25.8625 140.07292 25.8625 138.38542Q25.8625 137.9323 26.01875 137.47917Q26.20625 136.85417 26.565624 136.85417Q26.784374 136.85417 26.95625 137.01042Q27.128124 137.16667 27.128124 137.41667Q27.128124 137.51042 27.08125 137.66667ZM30.565624 146.26042Q29.58125 146.26042 28.8625 145.54167Q28.08125 144.72917 28.034374 143.35417Q28.003124 142.04167 28.70625 141.02605Q29.51875 139.83855 30.9875 139.83855Q32.159374 139.83855 32.76875 140.91667Q33.253124 141.77605 33.221874 142.9948Q33.20625 144.29167 32.55 145.21355Q31.8 146.26042 30.565624 146.26042ZM30.909374 141.02605Q30.05 141.02605 29.565624 141.85417Q29.190624 142.51042 29.190624 143.35417Q29.190624 144.21355 29.659374 144.6823Q30.034374 145.07292 30.565624 145.07292Q31.175 145.07292 31.6125 144.63542Q32.1125 144.13542 32.14375 143.3073Q32.221874 141.04167 30.909374 141.02605ZM38.284374 140.91667Q38.159374 140.91667 37.9875 140.91667Q37.83125 140.90105 37.70625 140.90105Q37.565624 140.90105 36.909374 140.9948L37.01875 144.44792L37.01875 144.71355L37.034374 145.01042Q37.05 146.29167 36.409374 146.29167Q36.175 146.29167 36.003124 146.13542Q35.83125 145.9948 35.83125 145.76042Q35.83125 145.54167 35.846874 145.10417Q35.878124 144.65105 35.878124 144.41667L35.753124 140.9948Q35.33125 140.97917 34.45625 140.90105Q33.925 140.82292 33.925 140.32292Q33.925 140.0573 34.08125 139.90105Q34.253124 139.72917 34.4875 139.72917L35.721874 139.82292Q35.721874 139.52605 35.690624 139.02605Q35.675 138.52605 35.675 138.29167Q35.675 138.0573 35.846874 137.90105Q36.01875 137.72917 36.253124 137.72917Q36.784374 137.72917 36.878124 138.58855Q36.89375 138.8073 36.89375 139.1198L36.878124 139.44792L36.878124 139.82292Q37.596874 139.72917 37.70625 139.72917Q38.315624 139.72917 38.503124 139.77605Q38.8625 139.90105 38.8625 140.33855Q38.8625 140.58855 38.690624 140.76042Q38.534374 140.91667 38.284374 140.91667ZM43.096874 146.1823Q41.784374 146.1823 40.95625 145.52605Q40.065624 144.79167 40.065624 143.47917Q40.065624 141.94792 40.8 140.91667Q41.596874 139.79167 42.940624 139.79167Q43.909374 139.79167 44.534374 140.1198Q45.284374 140.52605 45.284374 141.3698Q45.284374 141.94792 44.628124 142.4323Q44.33125 142.63542 43.378124 143.08855L41.14375 144.15105Q41.471874 144.63542 41.95625 144.88542Q42.45625 145.1198 43.096874 145.1198Q43.503124 145.1198 44.05 144.97917Q44.7375 144.77605 44.940624 144.46355Q45.14375 144.15105 45.3625 144.15105Q45.58125 144.15105 45.7375 144.3073Q45.89375 144.46355 45.89375 144.66667Q45.89375 145.32292 44.846874 145.79167Q43.95625 146.1823 43.096874 146.1823ZM42.940624 140.85417Q42.221874 140.85417 41.753124 141.40105Q41.284374 141.94792 41.05 143.07292L42.846874 142.21355Q43.909374 141.69792 44.3625 141.32292Q43.846874 140.85417 42.940624 140.85417ZM47.846874 141.3073L47.76875 144.22917Q47.76875 144.6823 47.721874 145.58855Q47.659374 146.16667 47.14375 146.16667Q46.565624 146.16667 46.565624 145.57292Q46.565624 144.85417 46.628124 143.44792Q46.70625 142.02605 46.70625 141.3073Q46.70625 140.38542 46.721874 139.19792Q46.753124 137.9948 46.753124 137.07292Q46.753124 136.4948 47.33125 136.4948Q47.909374 136.4948 47.909374 137.07292Q47.909374 137.9948 47.878124 139.19792Q47.846874 140.38542 47.846874 141.3073Z" fill-rule="nonzero"/><path fill="#9e9e9e" d="M22.675 166.91667L21.503124 166.91667L20.346874 166.91667Q19.940624 166.91667 19.76875 166.8698Q19.471874 166.76042 19.471874 166.41667Q19.471874 165.82292 20.39375 165.82292L20.675 165.83855L20.925 165.83855Q20.925 165.5573 20.8625 165.01042Q20.815624 164.46355 20.815624 164.1823Q20.815624 163.44792 20.95625 161.91667Q21.08125 160.4323 21.08125 159.65105Q20.284374 160.26042 20.08125 160.26042Q19.846874 160.26042 19.659374 160.08855Q19.4875 159.91667 19.4875 159.6823Q19.4875 159.41667 20.003124 159.01042Q20.315624 158.79167 20.89375 158.3073Q21.409374 157.77605 21.878124 157.77605Q22.26875 157.77605 22.26875 158.22917Q22.26875 158.3698 22.2375 158.63542Q22.20625 158.90105 22.20625 159.04167Q22.20625 159.22917 22.221874 159.6198Q22.2375 160.01042 22.2375 160.21355Q22.2375 160.8698 22.096874 162.19792Q21.95625 163.52605 21.95625 164.1823Q21.95625 164.52605 22.003124 165.01042Q22.05 165.4948 22.065624 165.8073L22.675 165.79167Q22.925 165.79167 23.08125 165.96355Q23.2375 166.1198 23.2375 166.35417Q23.2375 166.60417 23.08125 166.76042Q22.925 166.91667 22.675 166.91667ZM25.1125 167.46355Q24.815624 167.46355 24.596874 167.2448Q24.39375 167.04167 24.39375 166.72917Q24.39375 166.4323 24.596874 166.22917Q24.815624 166.01042 25.1125 166.01042Q25.409374 166.01042 25.628124 166.22917Q25.846874 166.4323 25.846874 166.72917Q25.846874 167.04167 25.628124 167.2448Q25.409374 167.46355 25.1125 167.46355ZM31.14375 166.21355Q30.721874 166.52605 29.76875 166.96355Q28.721874 167.47917 28.315624 167.47917Q28.08125 167.47917 27.925 167.29167Q27.76875 167.1198 27.76875 166.88542Q27.76875 166.54167 28.159374 166.3698L29.14375 166.02605Q30.05 165.66667 30.565624 165.1823Q31.096874 164.69792 31.534374 163.82292L31.784374 163.3073Q31.45625 163.4948 30.940624 163.66667Q30.425 163.82292 30.1125 163.82292Q29.003124 163.82292 28.190624 163.19792Q27.20625 162.44792 27.20625 161.07292Q27.20625 159.4323 28.221874 158.6198Q29.08125 157.91667 30.471874 157.91667Q31.55 157.91667 32.409374 158.79167Q33.315624 159.72917 33.315624 161.04167Q33.33125 162.52605 32.76875 163.9323Q32.175 165.44792 31.14375 166.21355ZM30.315624 158.91667Q29.33125 158.91667 28.83125 159.4323Q28.33125 159.9323 28.33125 160.96355Q28.33125 161.82292 28.940624 162.29167Q29.471874 162.71355 30.284374 162.71355Q30.753124 162.71355 31.253124 162.4323Q31.4875 162.3073 32.096874 161.85417Q32.175 161.33855 32.175 161.04167Q32.175 160.3073 31.55 159.6198Q30.940624 158.91667 30.315624 158.91667ZM36.14375 160.82292Q35.33125 160.82292 34.846874 160.2448Q34.409374 159.71355 34.409374 158.88542Q34.409374 158.3073 35.003124 157.79167Q35.58125 157.29167 36.159374 157.29167Q37.01875 157.29167 37.51875 157.85417Q38.003124 158.40105 38.003124 159.26042Q38.003124 159.97917 37.39375 160.41667Q36.8625 160.82292 36.14375 160.82292ZM40.784374 158.3073Q40.565624 158.66667 40.315624 159.2448L39.909374 160.19792L38.7375 162.6823L37.425 165.44792Q37.253124 165.90105 36.83125 166.77605Q36.675 167.08855 36.39375 167.08855Q36.20625 167.08855 36.05 166.94792Q35.89375 166.82292 35.89375 166.60417Q35.89375 166.52605 35.925 166.41667Q36.221874 165.6198 36.8625 164.35417Q37.6125 162.83855 37.846874 162.3073L39.425 158.79167Q39.7375 158.01042 40.003124 157.72917Q40.190624 157.52605 40.378124 157.52605Q40.58125 157.52605 40.7375 157.6823Q40.89375 157.82292 40.89375 158.02605Q40.89375 158.15105 40.784374 158.3073ZM40.940624 167.02605Q40.14375 167.02605 39.6125 166.5573Q39.065624 166.0573 39.065624 165.26042Q39.065624 164.38542 39.55 163.82292Q40.065624 163.21355 40.925 163.21355Q41.721874 163.21355 42.315624 163.65105Q42.971874 164.15105 42.971874 164.9323Q42.971874 165.83855 42.39375 166.4323Q41.83125 167.02605 40.940624 167.02605ZM36.14375 158.27605Q35.878124 158.27605 35.64375 158.44792Q35.39375 158.65105 35.39375 158.88542Q35.39375 159.35417 35.58125 159.60417Q35.76875 159.83855 36.14375 159.83855Q36.45625 159.83855 36.721874 159.69792Q37.01875 159.52605 37.01875 159.26042Q37.01875 158.76042 36.8 158.52605Q36.58125 158.27605 36.14375 158.27605ZM40.925 164.19792Q40.503124 164.19792 40.253124 164.51042Q40.05 164.8073 40.05 165.26042Q40.05 165.65105 40.3 165.85417Q40.55 166.04167 41.065624 166.04167Q41.534374 166.04167 41.753124 165.77605Q41.9875 165.4948 41.9875 164.9323Q41.9875 164.58855 41.628124 164.38542Q41.315624 164.19792 40.925 164.19792Z" fill-rule="nonzero"/><path stroke="#757575" stroke-width="1.0" stroke-linecap="butt" d="M18.55 151.41667L144.73334 151.41667L198.71239 103.941185" fill-rule="nonzero"/><path fill="#9e9e9e" d="M200.71239 103.941185C200.71239 102.83662 199.81696 101.941185 198.71239 101.941185C197.60782 101.941185 196.71239 102.83662 196.71239 103.941185C196.71239 105.04575 197.60782 105.941185 198.71239 105.941185C199.81696 105.941185 200.71239 105.04575 200.71239 103.941185" fill-rule="nonzero"/><path fill="#000000" d="M26.175 181.3698Q25.8 183.16667 24.628124 184.2448Q23.471874 185.32292 21.89375 185.32292Q20.45625 185.32292 19.7375 184.52605Q19.01875 183.71355 19.01875 182.10417Q19.01875 180.57292 19.7375 178.97917Q20.45625 177.3698 21.58125 176.3698Q22.33125 175.71355 23.159374 175.71355Q23.690624 175.71355 24.565624 176.0573Q25.628124 176.47917 25.628124 176.9948Q25.628124 177.22917 25.45625 177.41667Q25.284374 177.60417 25.034374 177.60417Q24.909374 177.60417 24.675 177.46355Q23.784374 176.91667 23.159374 176.91667Q22.721874 176.91667 22.2375 177.3698Q22.003124 177.60417 21.55 178.21355Q20.190624 179.9948 20.190624 182.10417Q20.190624 183.19792 20.534374 183.63542Q20.909374 184.1198 21.89375 184.1198Q22.940624 184.1198 23.721874 183.46355Q24.534374 182.76042 24.8625 181.44792Q23.2375 181.52605 22.065624 182.07292Q21.940624 182.13542 21.815624 182.13542Q21.55 182.13542 21.378124 181.9323Q21.221874 181.76042 21.221874 181.51042Q21.221874 181.19792 21.534374 180.9948Q22.8 180.22917 25.89375 180.22917Q26.14375 180.22917 26.315624 180.40105Q26.4875 180.57292 26.4875 180.82292Q26.4875 181.21355 26.175 181.3698ZM32.14375 181.4948Q32.14375 181.91667 32.14375 182.76042Q32.159374 183.60417 32.159374 184.02605Q32.159374 184.15105 32.175 184.41667Q32.20625 184.6823 32.20625 184.8073Q32.20625 185.0573 32.034374 185.21355Q31.8625 185.38542 31.6125 185.38542Q31.159374 185.38542 31.034374 184.82292Q30.3 185.21355 29.346874 185.21355Q28.58125 185.21355 28.08125 184.8698Q27.51875 184.4948 27.425 183.77605Q27.190624 182.21355 27.190624 181.01042Q27.190624 180.19792 27.3625 179.1823Q27.440624 178.66667 27.925 178.66667Q28.175 178.66667 28.346874 178.83855Q28.51875 178.9948 28.51875 179.2448Q28.51875 179.51042 28.425 180.10417Q28.346874 180.69792 28.346874 181.01042Q28.346874 181.97917 28.409374 182.6823Q28.471874 183.38542 28.596874 183.8073Q28.8 183.90105 28.9875 183.96355Q29.175 184.02605 29.346874 184.02605Q30.14375 184.02605 31.003124 183.76042L31.003124 182.57292L30.9875 181.44792Q30.9875 180.1823 31.096874 179.2448Q31.175 178.69792 31.675 178.69792Q31.925 178.69792 32.096874 178.8698Q32.26875 179.02605 32.253124 179.27605L32.14375 181.4948ZM36.096874 185.1823Q34.784374 185.1823 33.95625 184.52605Q33.065624 183.79167 33.065624 182.47917Q33.065624 180.94792 33.8 179.91667Q34.596874 178.79167 35.940624 178.79167Q36.909374 178.79167 37.534374 179.1198Q38.284374 179.52605 38.284374 180.3698Q38.284374 180.94792 37.628124 181.4323Q37.33125 181.63542 36.378124 182.08855L34.14375 183.15105Q34.471874 183.63542 34.95625 183.88542Q35.45625 184.1198 36.096874 184.1198Q36.503124 184.1198 37.05 183.97917Q37.7375 183.77605 37.940624 183.46355Q38.14375 183.15105 38.3625 183.15105Q38.58125 183.15105 38.7375 183.3073Q38.89375 183.46355 38.89375 183.66667Q38.89375 184.32292 37.846874 184.79167Q36.95625 185.1823 36.096874 185.1823ZM35.940624 179.85417Q35.221874 179.85417 34.753124 180.40105Q34.284374 180.94792 34.05 182.07292L35.846874 181.21355Q36.909374 180.69792 37.3625 180.32292Q36.846874 179.85417 35.940624 179.85417ZM43.315624 180.40105Q43.003124 180.40105 42.8625 180.1823Q42.784374 180.04167 42.721874 179.5573Q42.284374 179.66667 41.3625 179.96355Q40.425 180.33855 40.409374 180.88542Q40.596874 180.94792 40.753124 180.97917Q42.1125 181.22917 42.76875 181.65105Q43.721874 182.26042 43.721874 183.4323Q43.721874 184.38542 42.89375 184.8698Q42.20625 185.27605 41.159374 185.27605Q40.39375 185.27605 39.690624 185.01042Q38.784374 184.6823 38.784374 184.08855Q38.784374 183.85417 38.971874 183.6823Q39.159374 183.51042 39.39375 183.51042Q39.58125 183.51042 39.8625 183.79167Q40.003124 183.9323 40.503124 184.01042Q40.89375 184.08855 41.159374 184.08855Q41.64375 184.08855 42.01875 183.96355Q42.565624 183.79167 42.565624 183.4323Q42.565624 182.63542 41.45625 182.35417L40.846874 182.21355Q40.065624 182.04167 39.7375 181.82292Q39.26875 181.4948 39.26875 180.82292Q39.26875 179.60417 40.425 179.07292Q40.76875 178.91667 41.534374 178.69792Q42.315624 178.47917 42.659374 178.32292Q42.89375 178.22917 43.175 178.22917Q43.425 178.22917 43.58125 178.40105Q43.753124 178.5573 43.753124 178.82292Q43.753124 178.97917 43.815624 179.3073Q43.89375 179.63542 43.89375 179.8073Q43.89375 180.07292 43.721874 180.2448Q43.565624 180.40105 43.315624 180.40105ZM49.284374 179.91667Q49.159374 179.91667 48.9875 179.91667Q48.83125 179.90105 48.70625 179.90105Q48.565624 179.90105 47.909374 179.9948L48.01875 183.44792L48.01875 183.71355L48.034374 184.01042Q48.05 185.29167 47.409374 185.29167Q47.175 185.29167 47.003124 185.13542Q46.83125 184.9948 46.83125 184.76042Q46.83125 184.54167 46.846874 184.10417Q46.878124 183.65105 46.878124 183.41667L46.753124 179.9948Q46.33125 179.97917 45.45625 179.90105Q44.925 179.82292 44.925 179.32292Q44.925 179.0573 45.08125 178.90105Q45.253124 178.72917 45.4875 178.72917L46.721874 178.82292Q46.721874 178.52605 46.690624 178.02605Q46.675 177.52605 46.675 177.29167Q46.675 177.0573 46.846874 176.90105Q47.01875 176.72917 47.253124 176.72917Q47.784374 176.72917 47.878124 177.58855Q47.89375 177.8073 47.89375 178.1198L47.878124 178.44792L47.878124 178.82292Q48.596874 178.72917 48.70625 178.72917Q49.315624 178.72917 49.503124 178.77605Q49.8625 178.90105 49.8625 179.33855Q49.8625 179.58855 49.690624 179.76042Q49.534374 179.91667 49.284374 179.91667ZM56.26875 185.27605Q55.846874 185.27605 55.721874 184.83855Q55.596874 184.35417 55.471874 183.46355Q55.378124 182.6198 55.378124 182.07292Q55.378124 181.91667 55.39375 181.6198Q55.409374 181.3073 55.409374 181.15105Q55.409374 180.04167 54.846874 180.04167Q54.1125 180.04167 53.51875 180.71355Q53.221874 181.07292 52.70625 182.04167Q52.70625 184.27605 52.51875 184.6823Q52.346874 185.04167 52.003124 185.04167Q51.76875 185.04167 51.58125 184.88542Q51.39375 184.71355 51.39375 184.47917Q51.39375 184.40105 51.45625 184.22917Q51.503124 184.07292 51.51875 183.3698L51.534374 182.4948L51.55 178.19792Q51.596874 177.46355 51.596874 177.21355Q51.596874 176.91667 51.534374 176.65105Q51.4875 176.38542 51.4875 176.10417Q51.4875 175.85417 51.64375 175.69792Q51.815624 175.52605 52.065624 175.52605Q52.55 175.52605 52.628124 176.04167Q52.721874 176.6198 52.721874 177.07292Q52.721874 177.6823 52.690624 178.35417Q52.64375 178.9948 52.659374 179.63542L52.659374 180.15105Q53.14375 179.51042 53.690624 179.19792Q54.2375 178.8698 54.846874 178.8698Q55.83125 178.8698 56.190624 179.4948Q56.440624 179.94792 56.4875 180.9948L56.534374 182.1198L56.64375 183.33855Q56.721874 184.02605 56.846874 184.54167Q56.8625 184.65105 56.8625 184.71355Q56.8625 184.96355 56.690624 185.1198Q56.51875 185.27605 56.26875 185.27605ZM59.565624 185.26042Q58.58125 185.26042 57.8625 184.54167Q57.08125 183.72917 57.034374 182.35417Q57.003124 181.04167 57.70625 180.02605Q58.51875 178.83855 59.9875 178.83855Q61.159374 178.83855 61.76875 179.91667Q62.253124 180.77605 62.221874 181.9948Q62.20625 183.29167 61.55 184.21355Q60.8 185.26042 59.565624 185.26042ZM59.909374 180.02605Q59.05 180.02605 58.565624 180.85417Q58.190624 181.51042 58.190624 182.35417Q58.190624 183.21355 58.659374 183.6823Q59.034374 184.07292 59.565624 184.07292Q60.175 184.07292 60.6125 183.63542Q61.1125 183.13542 61.14375 182.3073Q61.221874 180.04167 59.909374 180.02605ZM68.14375 181.4948Q68.14375 181.91667 68.14375 182.76042Q68.15938 183.60417 68.15938 184.02605Q68.15938 184.15105 68.175 184.41667Q68.20625 184.6823 68.20625 184.8073Q68.20625 185.0573 68.03438 185.21355Q67.8625 185.38542 67.6125 185.38542Q67.15938 185.38542 67.03438 184.82292Q66.3 185.21355 65.34688 185.21355Q64.58125 185.21355 64.08125 184.8698Q63.51875 184.4948 63.425 183.77605Q63.190624 182.21355 63.190624 181.01042Q63.190624 180.19792 63.3625 179.1823Q63.440624 178.66667 63.925 178.66667Q64.175 178.66667 64.34688 178.83855Q64.51875 178.9948 64.51875 179.2448Q64.51875 179.51042 64.425 180.10417Q64.34688 180.69792 64.34688 181.01042Q64.34688 181.97917 64.40938 182.6823Q64.47188 183.38542 64.59688 183.8073Q64.8 183.90105 64.9875 183.96355Q65.175 184.02605 65.34688 184.02605Q66.14375 184.02605 67.00313 183.76042L67.00313 182.57292L66.9875 181.44792Q66.9875 180.1823 67.09688 179.2448Q67.175 178.69792 67.675 178.69792Q67.925 178.69792 68.09688 178.8698Q68.26875 179.02605 68.25313 179.27605L68.14375 181.4948ZM73.31563 180.40105Q73.00313 180.40105 72.8625 180.1823Q72.78438 180.04167 72.72188 179.5573Q72.28438 179.66667 71.3625 179.96355Q70.425 180.33855 70.40938 180.88542Q70.59688 180.94792 70.75313 180.97917Q72.1125 181.22917 72.76875 181.65105Q73.72188 182.26042 73.72188 183.4323Q73.72188 184.38542 72.89375 184.8698Q72.20625 185.27605 71.15938 185.27605Q70.39375 185.27605 69.69063 185.01042Q68.78438 184.6823 68.78438 184.08855Q68.78438 183.85417 68.97188 183.6823Q69.15938 183.51042 69.39375 183.51042Q69.58125 183.51042 69.8625 183.79167Q70.00313 183.9323 70.50313 184.01042Q70.89375 184.08855 71.15938 184.08855Q71.64375 184.08855 72.01875 183.96355Q72.56563 183.79167 72.56563 183.4323Q72.56563 182.63542 71.45625 182.35417L70.84688 182.21355Q70.06563 182.04167 69.7375 181.82292Q69.26875 181.4948 69.26875 180.82292Q69.26875 179.60417 70.425 179.07292Q70.76875 178.91667 71.53438 178.69792Q72.31563 178.47917 72.65938 178.32292Q72.89375 178.22917 73.175 178.22917Q73.425 178.22917 73.58125 178.40105Q73.75313 178.5573 73.75313 178.82292Q73.75313 178.97917 73.81563 179.3073Q73.89375 179.63542 73.89375 179.8073Q73.89375 180.07292 73.72188 180.2448Q73.56563 180.40105 73.31563 180.40105ZM78.09688 185.1823Q76.78438 185.1823 75.95625 184.52605Q75.06563 183.79167 75.06563 182.47917Q75.06563 180.94792 75.8 179.91667Q76.59688 178.79167 77.94063 178.79167Q78.90938 178.79167 79.53438 179.1198Q80.28438 179.52605 80.28438 180.3698Q80.28438 180.94792 79.62813 181.4323Q79.33125 181.63542 78.37813 182.08855L76.14375 183.15105Q76.47188 183.63542 76.95625 183.88542Q77.45625 184.1198 78.09688 184.1198Q78.50313 184.1198 79.05 183.97917Q79.7375 183.77605 79.94063 183.46355Q80.14375 183.15105 80.3625 183.15105Q80.58125 183.15105 80.7375 183.3073Q80.89375 183.46355 80.89375 183.66667Q80.89375 184.32292 79.84688 184.79167Q78.95625 185.1823 78.09688 185.1823ZM77.94063 179.85417Q77.22188 179.85417 76.75313 180.40105Q76.28438 180.94792 76.05 182.07292L77.84688 181.21355Q78.90938 180.69792 79.3625 180.32292Q78.84688 179.85417 77.94063 179.85417Z" fill-rule="nonzero"/><path fill="#9e9e9e" d="M22.675 205.91667L21.503124 205.91667L20.346874 205.91667Q19.940624 205.91667 19.76875 205.8698Q19.471874 205.76042 19.471874 205.41667Q19.471874 204.82292 20.39375 204.82292L20.675 204.83855L20.925 204.83855Q20.925 204.5573 20.8625 204.01042Q20.815624 203.46355 20.815624 203.1823Q20.815624 202.44792 20.95625 200.91667Q21.08125 199.4323 21.08125 198.65105Q20.284374 199.26042 20.08125 199.26042Q19.846874 199.26042 19.659374 199.08855Q19.4875 198.91667 19.4875 198.6823Q19.4875 198.41667 20.003124 198.01042Q20.315624 197.79167 20.89375 197.3073Q21.409374 196.77605 21.878124 196.77605Q22.26875 196.77605 22.26875 197.22917Q22.26875 197.3698 22.2375 197.63542Q22.20625 197.90105 22.20625 198.04167Q22.20625 198.22917 22.221874 198.6198Q22.2375 199.01042 22.2375 199.21355Q22.2375 199.8698 22.096874 201.19792Q21.95625 202.52605 21.95625 203.1823Q21.95625 203.52605 22.003124 204.01042Q22.05 204.4948 22.065624 204.8073L22.675 204.79167Q22.925 204.79167 23.08125 204.96355Q23.2375 205.1198 23.2375 205.35417Q23.2375 205.60417 23.08125 205.76042Q22.925 205.91667 22.675 205.91667ZM25.1125 206.46355Q24.815624 206.46355 24.596874 206.2448Q24.39375 206.04167 24.39375 205.72917Q24.39375 205.4323 24.596874 205.22917Q24.815624 205.01042 25.1125 205.01042Q25.409374 205.01042 25.628124 205.22917Q25.846874 205.4323 25.846874 205.72917Q25.846874 206.04167 25.628124 206.2448Q25.409374 206.46355 25.1125 206.46355ZM30.096874 206.1823Q29.20625 206.1823 28.503124 205.82292Q27.721874 205.38542 27.440624 204.6198Q27.409374 204.51042 27.409374 204.41667Q27.409374 204.1823 27.58125 204.02605Q27.76875 203.8698 28.003124 203.8698Q28.2375 203.8698 28.409374 204.08855L28.675 204.47917Q28.878124 204.77605 29.2375 204.91667Q29.596874 205.0573 30.096874 205.0573Q30.7375 205.0573 31.221874 204.66667Q31.721874 204.2448 31.721874 203.63542Q31.721874 202.7448 31.08125 202.21355Q30.503124 201.76042 29.55 201.66667Q28.89375 201.60417 28.89375 201.13542Q28.89375 200.79167 29.409374 200.60417L30.815624 200.26042Q31.221874 200.1198 31.425 199.8698Q31.628124 199.6198 31.628124 199.26042Q31.64375 198.7448 31.2375 198.4323Q30.8 198.10417 30.034374 198.10417Q29.628124 198.10417 29.253124 198.29167L28.596874 198.71355Q28.409374 198.83855 28.284374 198.83855Q28.05 198.83855 27.878124 198.66667Q27.721874 198.47917 27.721874 198.2448Q27.721874 197.77605 28.6125 197.35417Q29.39375 196.97917 29.89375 196.97917Q31.159374 196.97917 31.89375 197.52605Q32.690624 198.13542 32.690624 199.22917Q32.690624 200.6198 31.565624 201.0573Q31.471874 201.08855 31.346874 201.13542Q32.128124 201.41667 32.503124 201.9948Q32.89375 202.5573 32.89375 203.41667Q32.89375 204.57292 32.08125 205.38542Q31.26875 206.1823 30.096874 206.1823ZM36.14375 199.82292Q35.33125 199.82292 34.846874 199.2448Q34.409374 198.71355 34.409374 197.88542Q34.409374 197.3073 35.003124 196.79167Q35.58125 196.29167 36.159374 196.29167Q37.01875 196.29167 37.51875 196.85417Q38.003124 197.40105 38.003124 198.26042Q38.003124 198.97917 37.39375 199.41667Q36.8625 199.82292 36.14375 199.82292ZM40.784374 197.3073Q40.565624 197.66667 40.315624 198.2448L39.909374 199.19792L38.7375 201.6823L37.425 204.44792Q37.253124 204.90105 36.83125 205.77605Q36.675 206.08855 36.39375 206.08855Q36.20625 206.08855 36.05 205.94792Q35.89375 205.82292 35.89375 205.60417Q35.89375 205.52605 35.925 205.41667Q36.221874 204.6198 36.8625 203.35417Q37.6125 201.83855 37.846874 201.3073L39.425 197.79167Q39.7375 197.01042 40.003124 196.72917Q40.190624 196.52605 40.378124 196.52605Q40.58125 196.52605 40.7375 196.6823Q40.89375 196.82292 40.89375 197.02605Q40.89375 197.15105 40.784374 197.3073ZM40.940624 206.02605Q40.14375 206.02605 39.6125 205.5573Q39.065624 205.0573 39.065624 204.26042Q39.065624 203.38542 39.55 202.82292Q40.065624 202.21355 40.925 202.21355Q41.721874 202.21355 42.315624 202.65105Q42.971874 203.15105 42.971874 203.9323Q42.971874 204.83855 42.39375 205.4323Q41.83125 206.02605 40.940624 206.02605ZM36.14375 197.27605Q35.878124 197.27605 35.64375 197.44792Q35.39375 197.65105 35.39375 197.88542Q35.39375 198.35417 35.58125 198.60417Q35.76875 198.83855 36.14375 198.83855Q36.45625 198.83855 36.721874 198.69792Q37.01875 198.52605 37.01875 198.26042Q37.01875 197.76042 36.8 197.52605Q36.58125 197.27605 36.14375 197.27605ZM40.925 203.19792Q40.503124 203.19792 40.253124 203.51042Q40.05 203.8073 40.05 204.26042Q40.05 204.65105 40.3 204.85417Q40.55 205.04167 41.065624 205.04167Q41.534374 205.04167 41.753124 204.77605Q41.9875 204.4948 41.9875 203.9323Q41.9875 203.58855 41.628124 203.38542Q41.315624 203.19792 40.925 203.19792Z" fill-rule="nonzero"/><path stroke="#757575" stroke-width="1.0" stroke-linecap="butt" d="M18.55 190.41667L144.73334 190.41667L182.29611 124.10122" fill-rule="nonzero"/><path fill="#9e9e9e" d="M184.29611 124.10122C184.29611 122.99665 183.40068 122.10122 182.29611 122.10122C181.19154 122.10122 180.29611 122.99665 180.29611 124.10122C180.29611 125.20579 181.19154 126.10122 182.29611 126.10122C183.40068 126.10122 184.29611 125.20579 184.29611 124.10122" fill-rule="nonzero"/><path fill="#000000" d="M25.878124 226.5828Q25.33125 226.5828 24.940624 225.2078Q24.784374 224.67654 24.55 223.36404Q23.95625 223.44217 22.9875 223.6453L21.440624 223.97342Q21.14375 224.73904 20.425 226.22342Q20.2375 226.55154 19.925 226.55154Q19.690624 226.55154 19.503124 226.37967Q19.315624 226.2078 19.315624 225.9578Q19.315624 225.67654 20.20625 223.81717Q20.096874 223.66092 20.096874 223.4578Q20.096874 222.98904 20.675 222.84842Q21.346874 221.59842 22.3625 219.97342Q23.753124 217.75467 24.096874 217.75467Q24.55 217.75467 24.721874 218.3953L25.096874 220.36404L25.971874 224.44217L26.3 225.36404Q26.471874 225.8328 26.471874 225.98904Q26.471874 226.23904 26.284374 226.41092Q26.1125 226.5828 25.878124 226.5828ZM23.8 219.8953L22.128124 222.5828Q22.846874 222.41092 24.284374 222.1453L23.8 219.8953ZM28.4875 218.98904Q28.20625 218.98904 28.003124 218.80154Q27.8 218.59842 27.8 218.31717Q27.8 218.03592 28.003124 217.8328Q28.20625 217.62967 28.4875 217.62967Q28.76875 217.62967 28.971874 217.8328Q29.175 218.03592 29.175 218.31717Q29.175 218.59842 28.971874 218.80154Q28.76875 218.98904 28.4875 218.98904ZM28.753124 223.75467Q28.753124 224.09842 28.76875 224.80154Q28.784374 225.50467 28.784374 225.84842Q28.784374 226.11404 28.628124 226.28592Q28.471874 226.44217 28.221874 226.44217Q27.95625 226.44217 27.8 226.28592Q27.64375 226.11404 27.64375 225.84842Q27.64375 225.50467 27.6125 224.80154Q27.596874 224.09842 27.596874 223.75467Q27.596874 223.19217 27.659374 222.37967Q27.721874 221.55154 27.721874 221.00467Q27.721874 220.73904 27.878124 220.5828Q28.034374 220.41092 28.284374 220.41092Q28.55 220.41092 28.70625 220.5828Q28.8625 220.73904 28.8625 221.00467Q28.8625 221.55154 28.8 222.37967Q28.753124 223.19217 28.753124 223.75467ZM35.925 222.0828Q35.878124 222.81717 35.33125 222.81717Q34.83125 222.81717 34.83125 222.23904Q34.83125 222.11404 34.815624 221.81717L34.8 221.3328Q33.878124 221.44217 33.315624 221.84842Q32.8 222.23904 32.45625 223.00467L32.45625 226.2078Q32.45625 226.80154 31.878124 226.80154Q31.3625 226.80154 31.3625 226.2078L31.3625 222.09842Q31.3625 221.91092 31.378124 221.5203Q31.39375 221.12967 31.39375 220.94217Q31.39375 220.34842 31.909374 220.34842Q32.4875 220.34842 32.4875 221.31717Q33.6125 220.23904 34.9875 220.23904Q35.45625 220.23904 35.690624 220.59842Q35.925 220.94217 35.925 221.67654Q35.925 221.97342 35.925 222.0828ZM40.096874 226.66092Q39.20625 226.66092 38.471874 226.30154Q38.284374 226.5828 38.01875 226.5828Q37.8 226.5828 37.64375 226.42654Q37.4875 226.2703 37.4875 226.03592Q37.4875 225.8953 37.503124 225.59842Q37.51875 225.28592 37.51875 225.1453Q37.51875 224.5203 37.471874 223.28592Q37.440624 222.03592 37.440624 221.41092Q37.440624 220.98904 37.440624 219.80154Q37.45625 218.59842 37.45625 218.17654Q37.45625 217.81717 37.6125 217.53592Q37.8 217.17654 38.14375 217.17654Q38.58125 217.17654 38.58125 217.69217Q38.58125 217.7703 38.55 217.92654Q38.51875 218.0828 38.51875 218.17654L38.503124 219.4578L38.4875 220.94217Q39.003124 220.59842 39.45625 220.42654Q39.925 220.25467 40.33125 220.25467Q41.58125 220.25467 42.3625 221.22342Q43.1125 222.12967 43.1125 223.4578Q43.1125 224.78592 42.2375 225.72342Q41.378124 226.66092 40.096874 226.66092ZM40.33125 221.36404Q39.846874 221.36404 39.346874 221.62967Q39.096874 221.7703 38.503124 222.2078L38.4875 223.22342L38.4875 224.1453L38.503124 225.09842Q38.784374 225.23904 39.284374 225.42654Q39.64375 225.53592 40.096874 225.53592Q40.95625 225.53592 41.4875 224.94217Q42.034374 224.34842 42.034374 223.4578Q42.034374 222.5828 41.596874 222.00467Q41.128124 221.36404 40.33125 221.36404ZM47.8625 226.8328Q47.3625 226.8328 47.284374 226.2703L47.128124 224.98904Q47.05 224.30154 47.05 223.7078Q47.05 223.55154 47.065624 223.16092Q47.08125 222.75467 47.08125 222.59842Q47.08125 221.3328 46.6125 221.3328Q45.95625 221.3328 45.3625 222.11404Q44.83125 222.81717 44.51875 223.8953Q44.503124 224.12967 44.471874 224.47342Q44.425 224.7703 44.425 225.05154Q44.425 225.22342 44.45625 225.5828Q44.503124 225.92654 44.503124 226.09842Q44.503124 226.36404 44.33125 226.5203Q44.175 226.69217 43.925 226.69217Q43.675 226.69217 43.503124 226.5203Q43.346874 226.36404 43.346874 226.09842Q43.346874 225.92654 43.315624 225.5828Q43.284374 225.22342 43.284374 225.05154Q43.284374 224.44217 43.3625 223.37967Q43.440624 222.30154 43.440624 221.69217Q43.440624 221.50467 43.425 221.1453Q43.409374 220.7703 43.409374 220.5828Q43.409374 220.3328 43.565624 220.17654Q43.7375 220.00467 43.9875 220.00467Q44.51875 220.00467 44.58125 220.7703L44.596874 221.4578Q45.58125 220.1453 46.6125 220.1453Q47.55 220.1453 47.925 220.97342Q48.175 221.5203 48.20625 222.59842L48.20625 223.19217L48.190624 223.73904Q48.190624 224.22342 48.315624 225.00467Q48.440624 225.7703 48.440624 226.23904Q48.440624 226.50467 48.26875 226.66092Q48.1125 226.8328 47.8625 226.8328ZM52.096874 226.66092Q51.20625 226.66092 50.471874 226.30154Q50.284374 226.5828 50.01875 226.5828Q49.8 226.5828 49.64375 226.42654Q49.4875 226.2703 49.4875 226.03592Q49.4875 225.8953 49.503124 225.59842Q49.51875 225.28592 49.51875 225.1453Q49.51875 224.5203 49.471874 223.28592Q49.440624 222.03592 49.440624 221.41092Q49.440624 220.98904 49.440624 219.80154Q49.45625 218.59842 49.45625 218.17654Q49.45625 217.81717 49.6125 217.53592Q49.8 217.17654 50.14375 217.17654Q50.58125 217.17654 50.58125 217.69217Q50.58125 217.7703 50.55 217.92654Q50.51875 218.0828 50.51875 218.17654L50.503124 219.4578L50.4875 220.94217Q51.003124 220.59842 51.45625 220.42654Q51.925 220.25467 52.33125 220.25467Q53.58125 220.25467 54.3625 221.22342Q55.1125 222.12967 55.1125 223.4578Q55.1125 224.78592 54.2375 225.72342Q53.378124 226.66092 52.096874 226.66092ZM52.33125 221.36404Q51.846874 221.36404 51.346874 221.62967Q51.096874 221.7703 50.503124 222.2078L50.4875 223.22342L50.4875 224.1453L50.503124 225.09842Q50.784374 225.23904 51.284374 225.42654Q51.64375 225.53592 52.096874 225.53592Q52.95625 225.53592 53.4875 224.94217Q54.034374 224.34842 54.034374 223.4578Q54.034374 222.5828 53.596874 222.00467Q53.128124 221.36404 52.33125 221.36404ZM55.58125 226.94217Q55.378124 226.94217 55.20625 226.78592Q55.05 226.6453 55.05 226.42654Q55.05 226.3328 55.08125 226.22342Q55.534374 224.97342 56.8 222.59842Q58.065624 220.22342 58.534374 218.9578Q59.3 216.86404 59.690624 216.87967Q59.909374 216.8953 60.065624 217.05154Q60.2375 217.19217 60.2375 217.3953Q60.2375 217.53592 60.175 217.72342L59.51875 219.31717Q59.128124 220.3953 58.39375 221.81717L57.128124 224.23904L56.065624 226.59842Q55.909374 226.94217 55.58125 226.94217ZM65.7375 226.17654Q64.425 226.69217 62.378124 226.69217Q62.128124 226.69217 61.89375 226.4578Q61.675 226.22342 61.675 225.9578L61.675 224.25467Q61.675 223.42654 61.76875 221.86404Q61.89375 220.19217 61.909374 219.44217Q61.89375 218.91092 61.971874 217.8328Q62.003124 217.55154 62.159374 217.4578Q62.95625 217.2078 63.971874 217.2078Q65.00313 217.2078 65.95625 217.91092Q67.05 218.72342 67.05 219.91092Q67.05 221.41092 65.87813 222.28592Q66.75313 222.66092 67.19063 223.11404Q67.62813 223.56717 67.62813 224.11404Q67.62813 224.81717 66.8625 225.47342Q66.33125 225.94217 65.7375 226.17654ZM63.971874 218.3953Q63.33125 218.3953 63.08125 218.44217L63.065624 219.47342L62.940624 221.73904Q63.784374 221.80154 63.83125 221.80154Q64.72188 221.72342 65.28438 221.25467Q65.89375 220.72342 65.89375 219.91092Q65.89375 219.34842 65.26875 218.87967Q64.65938 218.3953 63.971874 218.3953ZM64.62813 223.09842L64.00313 222.98904Q63.925 222.98904 63.76875 223.00467Q63.628124 223.00467 63.534374 223.00467Q63.221874 223.00467 62.8625 222.9578Q62.83125 223.69217 62.83125 224.2703L62.83125 225.48904Q64.3625 225.44217 65.33125 225.05154Q65.7375 224.8953 66.1125 224.56717Q66.47188 224.25467 66.47188 224.11404Q66.47188 223.8328 65.72188 223.48904Q65.15938 223.22342 64.62813 223.09842ZM71.56563 226.75467Q70.58125 226.75467 69.8625 226.03592Q69.08125 225.22342 69.03438 223.84842Q69.00313 222.53592 69.70625 221.5203Q70.51875 220.3328 71.9875 220.3328Q73.15938 220.3328 73.76875 221.41092Q74.25313 222.2703 74.22188 223.48904Q74.20625 224.78592 73.55 225.7078Q72.8 226.75467 71.56563 226.75467ZM71.90938 221.5203Q71.05 221.5203 70.56563 222.34842Q70.19063 223.00467 70.19063 223.84842Q70.19063 224.7078 70.65938 225.17654Q71.03438 225.56717 71.56563 225.56717Q72.175 225.56717 72.6125 225.12967Q73.1125 224.62967 73.14375 223.80154Q73.22188 221.53592 71.90938 221.5203ZM77.56563 226.75467Q76.58125 226.75467 75.8625 226.03592Q75.08125 225.22342 75.03438 223.84842Q75.00313 222.53592 75.70625 221.5203Q76.51875 220.3328 77.9875 220.3328Q79.15938 220.3328 79.76875 221.41092Q80.25313 222.2703 80.22188 223.48904Q80.20625 224.78592 79.55 225.7078Q78.8 226.75467 77.56563 226.75467ZM77.90938 221.5203Q77.05 221.5203 76.56563 222.34842Q76.19063 223.00467 76.19063 223.84842Q76.19063 224.7078 76.65938 225.17654Q77.03438 225.56717 77.56563 225.56717Q78.175 225.56717 78.6125 225.12967Q79.1125 224.62967 79.14375 223.80154Q79.22188 221.53592 77.90938 221.5203ZM86.25313 226.6453Q85.925 226.6453 85.75313 226.31717Q85.44063 225.72342 84.83125 224.91092L83.78438 223.50467Q83.45625 223.7703 82.7375 224.25467Q82.675 225.16092 82.675 226.0203Q82.675 226.28592 82.50313 226.44217Q82.34688 226.61404 82.09688 226.61404Q81.50313 226.61404 81.50313 225.81717Q81.50313 225.3328 81.56563 224.36404Q81.64375 223.3953 81.64375 222.91092Q81.64375 222.0203 81.65938 220.87967Q81.69063 219.72342 81.69063 218.84842Q81.69063 218.5828 81.65938 218.22342Q81.64375 217.86404 81.64375 217.59842Q81.64375 217.3328 81.8 217.17654Q81.95625 217.00467 82.22188 217.00467Q82.47188 217.00467 82.62813 217.17654Q82.78438 217.3328 82.78438 217.59842Q82.78438 217.87967 82.81563 218.23904Q82.84688 218.59842 82.84688 218.87967L82.8 220.75467Q82.78438 221.78592 82.78438 222.80154Q83.58125 222.19217 84.33125 221.4578L85.6125 220.12967Q85.8 219.94217 86.03438 219.94217Q86.25313 219.94217 86.44063 220.12967Q86.62813 220.30154 86.62813 220.53592Q86.62813 220.73904 86.45625 220.92654Q85.7375 221.7703 84.675 222.73904L85.95625 224.48904Q86.8625 225.7078 86.8625 226.0828Q86.8625 226.31717 86.675 226.47342Q86.4875 226.6453 86.25313 226.6453ZM88.4875 218.98904Q88.20625 218.98904 88.00313 218.80154Q87.8 218.59842 87.8 218.31717Q87.8 218.03592 88.00313 217.8328Q88.20625 217.62967 88.4875 217.62967Q88.76875 217.62967 88.97188 217.8328Q89.175 218.03592 89.175 218.31717Q89.175 218.59842 88.97188 218.80154Q88.76875 218.98904 88.4875 218.98904ZM88.75313 223.75467Q88.75313 224.09842 88.76875 224.80154Q88.78438 225.50467 88.78438 225.84842Q88.78438 226.11404 88.62813 226.28592Q88.47188 226.44217 88.22188 226.44217Q87.95625 226.44217 87.8 226.28592Q87.64375 226.11404 87.64375 225.84842Q87.64375 225.50467 87.6125 224.80154Q87.59688 224.09842 87.59688 223.75467Q87.59688 223.19217 87.65938 222.37967Q87.72188 221.55154 87.72188 221.00467Q87.72188 220.73904 87.87813 220.5828Q88.03438 220.41092 88.28438 220.41092Q88.55 220.41092 88.70625 220.5828Q88.8625 220.73904 88.8625 221.00467Q88.8625 221.55154 88.8 222.37967Q88.75313 223.19217 88.75313 223.75467ZM95.8625 226.8328Q95.3625 226.8328 95.28438 226.2703L95.12813 224.98904Q95.05 224.30154 95.05 223.7078Q95.05 223.55154 95.06563 223.16092Q95.08125 222.75467 95.08125 222.59842Q95.08125 221.3328 94.6125 221.3328Q93.95625 221.3328 93.3625 222.11404Q92.83125 222.81717 92.51875 223.8953Q92.50313 224.12967 92.47188 224.47342Q92.425 224.7703 92.425 225.05154Q92.425 225.22342 92.45625 225.5828Q92.50313 225.92654 92.50313 226.09842Q92.50313 226.36404 92.33125 226.5203Q92.175 226.69217 91.925 226.69217Q91.675 226.69217 91.50313 226.5203Q91.34688 226.36404 91.34688 226.09842Q91.34688 225.92654 91.31563 225.5828Q91.28438 225.22342 91.28438 225.05154Q91.28438 224.44217 91.3625 223.37967Q91.44063 222.30154 91.44063 221.69217Q91.44063 221.50467 91.425 221.1453Q91.40938 220.7703 91.40938 220.5828Q91.40938 220.3328 91.56563 220.17654Q91.7375 220.00467 91.9875 220.00467Q92.51875 220.00467 92.58125 220.7703L92.59688 221.4578Q93.58125 220.1453 94.6125 220.1453Q95.55 220.1453 95.925 220.97342Q96.175 221.5203 96.20625 222.59842L96.20625 223.19217L96.19063 223.73904Q96.19063 224.22342 96.31563 225.00467Q96.44063 225.7703 96.44063 226.23904Q96.44063 226.50467 96.26875 226.66092Q96.1125 226.8328 95.8625 226.8328ZM102.19063 223.87967L102.05 225.84842Q102.01875 227.0203 101.81563 227.7703Q101.55 228.72342 100.97188 229.17654Q100.26875 229.72342 98.94063 229.72342Q98.15938 229.72342 97.62813 229.61404Q96.89375 229.4578 96.89375 229.00467Q96.89375 228.47342 97.39375 228.47342Q97.6125 228.47342 98.09688 228.5828Q98.59688 228.69217 99.19063 228.67654Q100.31563 228.66092 100.75313 227.5828Q101.03438 226.86404 101.05 225.37967Q100.72188 225.97342 100.28438 226.2703Q99.8625 226.55154 99.3 226.55154Q98.2375 226.55154 97.56563 225.8328Q96.90938 225.11404 96.90938 223.9578Q96.90938 222.37967 97.81563 221.41092Q98.75313 220.41092 100.3625 220.41092Q100.90938 220.41092 101.26875 220.55154Q101.64375 220.69217 101.84688 220.97342Q102.47188 220.98904 102.47188 221.67654Q102.47188 222.0828 102.34688 222.78592Q102.20625 223.59842 102.19063 223.87967ZM100.3 221.34842Q99.19063 221.34842 98.58125 222.11404Q98.03438 222.80154 98.03438 223.87967Q98.03438 224.72342 98.3625 225.16092Q98.69063 225.5828 99.33125 225.5828Q99.925 225.5828 100.47188 224.91092Q100.9875 224.30154 101.05 223.69217Q101.175 223.05154 101.31563 221.7078Q101.08125 221.5203 100.83125 221.44217Q100.58125 221.34842 100.3 221.34842Z" fill-rule="nonzero"/><path fill="#9e9e9e" d="M24.45625 247.42654Q24.315624 247.42654 24.05 247.3328Q23.784374 247.23904 23.64375 247.23904Q23.33125 247.23904 22.7375 247.28592Q22.14375 247.31717 21.83125 247.31717Q21.6125 247.31717 21.159374 247.37967Q20.70625 247.42654 20.4875 247.42654Q20.425 247.42654 20.3 247.41092Q20.175 247.37967 20.1125 247.37967Q19.70625 247.37967 19.58125 246.98904Q19.51875 246.78592 19.51875 246.28592Q19.51875 244.92654 20.253124 244.0828Q20.596874 243.7078 22.096874 242.67654Q22.925 242.11404 23.20625 241.78592Q23.70625 241.22342 23.70625 240.47342Q23.70625 240.09842 23.221874 239.80154Q22.8 239.53592 22.39375 239.53592Q21.846874 239.53592 21.3625 239.84842L20.51875 240.50467Q20.26875 240.7078 20.128124 240.7078Q19.51875 240.7078 19.51875 240.22342Q19.51875 239.94217 19.7375 239.73904Q20.425 239.09842 20.925 238.81717Q21.64375 238.41092 22.39375 238.41092Q23.33125 238.41092 24.08125 238.92654Q24.909374 239.50467 24.909374 240.41092Q24.909374 241.00467 24.7375 241.5203Q24.58125 242.0203 24.221874 242.44217Q23.784374 242.9578 22.7375 243.61404Q21.64375 244.30154 21.3 244.66092Q20.64375 245.3328 20.659374 246.30154L21.8625 246.19217Q23.096874 246.11404 23.64375 246.11404Q24.08125 246.11404 24.4875 246.2703Q25.003124 246.47342 25.003124 246.8328Q25.003124 247.06717 24.846874 247.25467Q24.690624 247.42654 24.45625 247.42654ZM31.20625 244.84842L31.20625 247.0203Q31.20625 247.56717 30.659374 247.56717Q30.05 247.56717 30.05 246.7078Q30.05 246.61404 30.05 246.42654Q30.065624 246.22342 30.065624 246.1453L30.065624 244.81717L27.471874 244.75467Q26.675 244.75467 26.3625 244.7078Q25.83125 244.61404 25.83125 244.28592Q25.83125 244.0203 26.159374 243.61404L26.659374 243.0203L29.534374 238.81717Q29.940624 238.2703 30.534374 238.2703Q31.20625 238.2703 31.20625 238.84842L31.20625 243.7078Q31.3 243.7078 31.440624 243.7078Q32.51875 243.7078 32.51875 244.28592Q32.51875 244.7078 32.065624 244.81717Q31.878124 244.87967 31.20625 244.84842ZM30.065624 239.8953Q28.503124 242.3953 27.6125 243.62967L30.065624 243.69217L30.065624 239.8953ZM34.1125 247.9578Q33.815624 247.9578 33.596874 247.73904Q33.39375 247.53592 33.39375 247.22342Q33.39375 246.92654 33.596874 246.72342Q33.815624 246.50467 34.1125 246.50467Q34.409374 246.50467 34.628124 246.72342Q34.846874 246.92654 34.846874 247.22342Q34.846874 247.53592 34.628124 247.73904Q34.409374 247.9578 34.1125 247.9578ZM39.128124 247.6453Q37.346874 247.6453 36.534374 246.00467Q35.909374 244.75467 35.909374 242.73904Q35.909374 241.05154 36.721874 239.78592Q37.675 238.30154 39.315624 238.30154Q40.846874 238.30154 41.721874 239.61404Q42.45625 240.75467 42.45625 242.37967Q42.45625 245.00467 41.628124 246.3328Q40.8 247.6453 39.128124 247.6453ZM39.3 239.42654Q38.221874 239.42654 37.58125 240.53592Q37.05 241.4578 37.05 242.6453Q37.05 244.5828 37.565624 245.55154Q38.08125 246.5203 39.128124 246.5203Q40.378124 246.5203 40.909374 245.09842Q41.284374 244.11404 41.284374 242.59842Q41.284374 241.00467 40.784374 240.22342Q40.3 239.42654 39.3 239.42654ZM45.14375 241.31717Q44.33125 241.31717 43.846874 240.73904Q43.409374 240.2078 43.409374 239.37967Q43.409374 238.80154 44.003124 238.28592Q44.58125 237.78592 45.159374 237.78592Q46.01875 237.78592 46.51875 238.34842Q47.003124 238.8953 47.003124 239.75467Q47.003124 240.47342 46.39375 240.91092Q45.8625 241.31717 45.14375 241.31717ZM49.784374 238.80154Q49.565624 239.16092 49.315624 239.73904L48.909374 240.69217L47.7375 243.17654L46.425 245.94217Q46.253124 246.3953 45.83125 247.2703Q45.675 247.5828 45.39375 247.5828Q45.20625 247.5828 45.05 247.44217Q44.89375 247.31717 44.89375 247.09842Q44.89375 247.0203 44.925 246.91092Q45.221874 246.11404 45.8625 244.84842Q46.6125 243.3328 46.846874 242.80154L48.425 239.28592Q48.7375 238.50467 49.003124 238.22342Q49.190624 238.0203 49.378124 238.0203Q49.58125 238.0203 49.7375 238.17654Q49.89375 238.31717 49.89375 238.5203Q49.89375 238.6453 49.784374 238.80154ZM49.940624 247.5203Q49.14375 247.5203 48.6125 247.05154Q48.065624 246.55154 48.065624 245.75467Q48.065624 244.87967 48.55 244.31717Q49.065624 243.7078 49.925 243.7078Q50.721874 243.7078 51.315624 244.1453Q51.971874 244.6453 51.971874 245.42654Q51.971874 246.3328 51.39375 246.92654Q50.83125 247.5203 49.940624 247.5203ZM45.14375 238.7703Q44.878124 238.7703 44.64375 238.94217Q44.39375 239.1453 44.39375 239.37967Q44.39375 239.84842 44.58125 240.09842Q44.76875 240.3328 45.14375 240.3328Q45.45625 240.3328 45.721874 240.19217Q46.01875 240.0203 46.01875 239.75467Q46.01875 239.25467 45.8 239.0203Q45.58125 238.7703 45.14375 238.7703ZM49.925 244.69217Q49.503124 244.69217 49.253124 245.00467Q49.05 245.30154 49.05 245.75467Q49.05 246.1453 49.3 246.34842Q49.55 246.53592 50.065624 246.53592Q50.534374 246.53592 50.753124 246.2703Q50.9875 245.98904 50.9875 245.42654Q50.9875 245.0828 50.628124 244.87967Q50.315624 244.69217 49.925 244.69217Z" fill-rule="nonzero"/><path stroke="#757575" stroke-width="1.0" stroke-linecap="butt" d="M18.55 231.91092L144.73334 231.91092L161.13708 231.91092" fill-rule="nonzero"/><path fill="#9e9e9e" d="M163.13708 231.91092C163.13708 230.80635 162.24165 229.91092 161.13708 229.91092C160.0325 229.91092 159.13708 230.80635 159.13708 231.91092C159.13708 233.01549 160.0325 233.91092 161.13708 233.91092C162.24165 233.91092 163.13708 233.01549 163.13708 231.91092" fill-rule="nonzero"/><path fill="#000000" d="M552.98126 232.15105Q552.8875 232.38542 552.8875 232.8698Q552.8875 233.04167 552.90314 233.38542Q552.91876 233.72917 552.91876 233.90105Q552.91876 234.4948 552.8094 235.65105Q552.71564 236.8073 552.71564 237.40105Q552.71564 237.83855 552.77814 238.72917Q552.84064 239.6198 552.84064 240.07292Q552.84064 240.32292 552.66876 240.47917Q552.5125 240.65105 552.27814 240.65105Q552.04376 240.65105 551.8719 240.47917Q551.71564 240.32292 551.71564 240.07292Q551.71564 239.6198 551.65314 238.72917Q551.59064 237.83855 551.59064 237.40105Q551.59064 236.97917 551.6219 236.52605Q550.6219 236.5573 549.1375 236.83855L546.6844 237.3073Q546.6844 237.83855 546.575 238.8073Q546.46564 239.77605 546.46564 240.3073Q546.46564 240.5573 546.29376 240.71355Q546.1375 240.88542 545.90314 240.88542Q545.66876 240.88542 545.4969 240.71355Q545.34064 240.5573 545.34064 240.3073Q545.34064 239.69792 545.4344 238.46355Q545.54376 237.22917 545.54376 236.60417Q545.54376 236.27605 545.5125 235.63542Q545.4969 234.97917 545.4969 234.65105Q545.4969 234.1823 545.5594 233.26042Q545.6219 232.33855 545.6219 231.8698Q545.6219 231.6198 545.77814 231.46355Q545.9344 231.29167 546.1844 231.29167Q546.41876 231.29167 546.575 231.46355Q546.7469 231.6198 546.7469 231.8698Q546.7469 232.33855 546.6844 233.27605Q546.6219 234.21355 546.6219 234.6823L546.65314 236.15105L549.16876 235.6823Q550.66876 235.40105 551.7 235.38542Q551.7625 234.5573 551.7625 232.8698Q551.7625 232.41667 551.91876 231.96355Q552.10626 231.33855 552.46564 231.33855Q552.6844 231.33855 552.85626 231.4948Q553.02814 231.65105 553.02814 231.90105Q553.02814 231.9948 552.98126 232.15105ZM556.46564 240.7448Q555.48126 240.7448 554.7625 240.02605Q553.98126 239.21355 553.9344 237.83855Q553.90314 236.52605 554.60626 235.51042Q555.41876 234.32292 556.8875 234.32292Q558.0594 234.32292 558.66876 235.40105Q559.15314 236.26042 559.1219 237.47917Q559.10626 238.77605 558.45 239.69792Q557.7 240.7448 556.46564 240.7448ZM556.8094 235.51042Q555.95 235.51042 555.46564 236.33855Q555.09064 236.9948 555.09064 237.83855Q555.09064 238.69792 555.5594 239.16667Q555.9344 239.5573 556.46564 239.5573Q557.075 239.5573 557.5125 239.1198Q558.0125 238.6198 558.04376 237.79167Q558.1219 235.52605 556.8094 235.51042ZM564.21564 235.88542Q563.90314 235.88542 563.7625 235.66667Q563.6844 235.52605 563.6219 235.04167Q563.1844 235.15105 562.2625 235.44792Q561.325 235.82292 561.3094 236.3698Q561.4969 236.4323 561.65314 236.46355Q563.0125 236.71355 563.66876 237.13542Q564.6219 237.7448 564.6219 238.91667Q564.6219 239.8698 563.79376 240.35417Q563.10626 240.76042 562.0594 240.76042Q561.29376 240.76042 560.59064 240.4948Q559.6844 240.16667 559.6844 239.57292Q559.6844 239.33855 559.8719 239.16667Q560.0594 238.9948 560.29376 238.9948Q560.48126 238.9948 560.7625 239.27605Q560.90314 239.41667 561.40314 239.4948Q561.79376 239.57292 562.0594 239.57292Q562.54376 239.57292 562.91876 239.44792Q563.46564 239.27605 563.46564 238.91667Q563.46564 238.1198 562.35626 237.83855L561.7469 237.69792Q560.96564 237.52605 560.6375 237.3073Q560.16876 236.97917 560.16876 236.3073Q560.16876 235.08855 561.325 234.5573Q561.66876 234.40105 562.4344 234.1823Q563.21564 233.96355 563.5594 233.8073Q563.79376 233.71355 564.075 233.71355Q564.325 233.71355 564.48126 233.88542Q564.65314 234.04167 564.65314 234.3073Q564.65314 234.46355 564.71564 234.79167Q564.79376 235.1198 564.79376 235.29167Q564.79376 235.5573 564.6219 235.72917Q564.46564 235.88542 564.21564 235.88542ZM570.1844 235.40105Q570.0594 235.40105 569.8875 235.40105Q569.73126 235.38542 569.60626 235.38542Q569.46564 235.38542 568.8094 235.47917L568.91876 238.9323L568.91876 239.19792L568.9344 239.4948Q568.95 240.77605 568.3094 240.77605Q568.075 240.77605 567.90314 240.6198Q567.73126 240.47917 567.73126 240.2448Q567.73126 240.02605 567.7469 239.58855Q567.77814 239.13542 567.77814 238.90105L567.65314 235.47917Q567.23126 235.46355 566.35626 235.38542Q565.825 235.3073 565.825 234.8073Q565.825 234.54167 565.98126 234.38542Q566.15314 234.21355 566.3875 234.21355L567.6219 234.3073Q567.6219 234.01042 567.59064 233.51042Q567.575 233.01042 567.575 232.77605Q567.575 232.54167 567.7469 232.38542Q567.91876 232.21355 568.15314 232.21355Q568.6844 232.21355 568.77814 233.07292Q568.79376 233.29167 568.79376 233.60417L568.77814 233.9323L568.77814 234.3073Q569.4969 234.21355 569.60626 234.21355Q570.21564 234.21355 570.40314 234.26042Q570.7625 234.38542 570.7625 234.82292Q570.7625 235.07292 570.59064 235.2448Q570.4344 235.40105 570.1844 235.40105ZM574.9969 240.66667Q573.6844 240.66667 572.85626 240.01042Q571.96564 239.27605 571.96564 237.96355Q571.96564 236.4323 572.7 235.40105Q573.4969 234.27605 574.84064 234.27605Q575.8094 234.27605 576.4344 234.60417Q577.1844 235.01042 577.1844 235.85417Q577.1844 236.4323 576.52814 236.91667Q576.23126 237.1198 575.27814 237.57292L573.04376 238.63542Q573.3719 239.1198 573.85626 239.3698Q574.35626 239.60417 574.9969 239.60417Q575.40314 239.60417 575.95 239.46355Q576.6375 239.26042 576.84064 238.94792Q577.04376 238.63542 577.2625 238.63542Q577.48126 238.63542 577.6375 238.79167Q577.79376 238.94792 577.79376 239.15105Q577.79376 239.8073 576.7469 240.27605Q575.85626 240.66667 574.9969 240.66667ZM574.84064 235.33855Q574.1219 235.33855 573.65314 235.88542Q573.1844 236.4323 572.95 237.5573L574.7469 236.69792Q575.8094 236.1823 576.2625 235.8073Q575.7469 235.33855 574.84064 235.33855ZM579.7469 235.79167L579.66876 238.71355Q579.66876 239.16667 579.6219 240.07292Q579.5594 240.65105 579.04376 240.65105Q578.46564 240.65105 578.46564 240.0573Q578.46564 239.33855 578.52814 237.9323Q578.60626 236.51042 578.60626 235.79167Q578.60626 234.8698 578.6219 233.6823Q578.65314 232.47917 578.65314 231.5573Q578.65314 230.97917 579.23126 230.97917Q579.8094 230.97917 579.8094 231.5573Q579.8094 232.47917 579.77814 233.6823Q579.7469 234.8698 579.7469 235.79167Z" fill-rule="nonzero"/><path fill="#9e9e9e" d="M550.7469 261.77606Q549.075 261.77606 548.29376 260.5417Q548.1844 260.3698 548.1844 260.21356Q548.1844 259.9792 548.3719 259.82294Q548.5594 259.65106 548.77814 259.65106Q549.02814 259.65106 549.23126 259.90106Q549.54376 260.27606 549.7 260.38544Q550.09064 260.65106 550.7469 260.65106Q551.7625 260.65106 552.41876 259.8698Q553.0594 259.13544 553.0594 258.08856Q553.0594 257.2448 552.77814 256.71356Q552.41876 256.02606 551.66876 256.02606Q551.04376 256.02606 550.6375 256.19794Q550.325 256.33856 549.9969 256.6667L549.35626 257.3698Q549.10626 257.6198 548.84064 257.6198Q548.60626 257.6198 548.4344 257.46356Q548.27814 257.2917 548.27814 257.0573Q548.27814 256.94794 548.3719 256.01044Q548.5594 254.16669 548.5594 253.58856Q548.5594 253.38544 548.45 253.15106Q548.35626 252.90106 548.35626 252.77606Q548.35626 252.41669 548.98126 252.41669Q549.09064 252.41669 549.325 252.44794Q549.5594 252.46356 549.6844 252.46356Q550.02814 252.46356 550.7 252.44794Q551.3875 252.41669 551.71564 252.41669Q551.8875 252.41669 552.2 252.43231Q552.52814 252.44794 552.6844 252.44794Q552.79376 252.44794 552.9969 252.40106Q553.21564 252.35419 553.325 252.35419Q553.54376 252.35419 553.71564 252.52606Q553.90314 252.69794 553.90314 252.91669Q553.90314 253.57294 552.5125 253.57294Q552.325 253.57294 552.04376 253.55731Q551.77814 253.54169 551.71564 253.54169L550.73126 253.57294L549.7469 253.58856Q549.7469 253.85419 549.52814 255.54169Q550.325 254.90106 551.66876 254.90106Q552.95 254.90106 553.6375 255.91669Q554.2 256.77606 554.2 258.08856Q554.2 259.6823 553.27814 260.69794Q552.325 261.77606 550.7469 261.77606ZM559.04376 260.69794Q558.6219 261.01044 557.66876 261.44794Q556.6219 261.96356 556.21564 261.96356Q555.98126 261.96356 555.825 261.77606Q555.66876 261.6042 555.66876 261.3698Q555.66876 261.02606 556.0594 260.8542L557.04376 260.51044Q557.95 260.15106 558.46564 259.6667Q558.9969 259.1823 559.4344 258.3073L559.6844 257.7917Q559.35626 257.9792 558.84064 258.15106Q558.325 258.3073 558.0125 258.3073Q556.90314 258.3073 556.09064 257.6823Q555.10626 256.9323 555.10626 255.55731Q555.10626 253.91669 556.1219 253.10419Q556.98126 252.40106 558.3719 252.40106Q559.45 252.40106 560.3094 253.27606Q561.21564 254.21356 561.21564 255.52606Q561.23126 257.01044 560.66876 258.4167Q560.075 259.9323 559.04376 260.69794ZM558.21564 253.40106Q557.23126 253.40106 556.73126 253.91669Q556.23126 254.41669 556.23126 255.44794Q556.23126 256.3073 556.84064 256.77606Q557.3719 257.19794 558.1844 257.19794Q558.65314 257.19794 559.15314 256.9167Q559.3875 256.7917 559.9969 256.33856Q560.075 255.82294 560.075 255.52606Q560.075 254.79169 559.45 254.10419Q558.84064 253.40106 558.21564 253.40106ZM563.0125 261.94794Q562.71564 261.94794 562.4969 261.7292Q562.29376 261.52606 562.29376 261.21356Q562.29376 260.9167 562.4969 260.71356Q562.71564 260.4948 563.0125 260.4948Q563.3094 260.4948 563.52814 260.71356Q563.7469 260.9167 563.7469 261.21356Q563.7469 261.52606 563.52814 261.7292Q563.3094 261.94794 563.0125 261.94794ZM571.21564 253.74481L570.6844 254.36981Q569.91876 255.26044 569.27814 256.52606L568.21564 258.8698Q568.10626 259.1198 567.71564 260.21356Q567.41876 261.08856 567.15314 261.51044Q566.98126 261.7917 566.6844 261.7917Q566.45 261.7917 566.2625 261.6198Q566.09064 261.46356 566.09064 261.2292Q566.09064 261.01044 566.46564 260.08856L567.77814 256.8542Q568.65314 254.94794 569.575 253.90106L569.6844 253.77606L566.7469 253.72919L565.4344 253.68231Q564.85626 253.63544 564.85626 253.11981Q564.85626 252.88544 565.0125 252.72919Q565.1844 252.55731 565.4344 252.55731Q566.16876 252.55731 567.65314 252.60419Q569.1375 252.65106 569.8719 252.65106L570.95 252.65106Q571.5594 252.65106 571.5594 253.02606Q571.5594 253.30731 571.21564 253.74481ZM574.04376 255.30731Q573.23126 255.30731 572.7469 254.72919Q572.3094 254.19794 572.3094 253.36981Q572.3094 252.79169 572.90314 252.27606Q573.48126 251.77606 574.0594 251.77606Q574.91876 251.77606 575.41876 252.33856Q575.90314 252.88544 575.90314 253.74481Q575.90314 254.46356 575.29376 254.90106Q574.7625 255.30731 574.04376 255.30731ZM578.6844 252.79169Q578.46564 253.15106 578.21564 253.72919L577.8094 254.68231L576.6375 257.1667L575.325 259.9323Q575.15314 260.38544 574.73126 261.26044Q574.575 261.57294 574.29376 261.57294Q574.10626 261.57294 573.95 261.4323Q573.79376 261.3073 573.79376 261.08856Q573.79376 261.01044 573.825 260.90106Q574.1219 260.1042 574.7625 258.83856Q575.5125 257.32294 575.7469 256.7917L577.325 253.27606Q577.6375 252.49481 577.90314 252.21356Q578.09064 252.01044 578.27814 252.01044Q578.48126 252.01044 578.6375 252.16669Q578.79376 252.30731 578.79376 252.51044Q578.79376 252.63544 578.6844 252.79169ZM578.84064 261.51044Q578.04376 261.51044 577.5125 261.0417Q576.96564 260.5417 576.96564 259.7448Q576.96564 258.8698 577.45 258.3073Q577.96564 257.69794 578.825 257.69794Q579.6219 257.69794 580.21564 258.13544Q580.8719 258.63544 580.8719 259.4167Q580.8719 260.32294 580.29376 260.9167Q579.73126 261.51044 578.84064 261.51044ZM574.04376 252.76044Q573.77814 252.76044 573.54376 252.93231Q573.29376 253.13544 573.29376 253.36981Q573.29376 253.83856 573.48126 254.08856Q573.66876 254.32294 574.04376 254.32294Q574.35626 254.32294 574.6219 254.18231Q574.91876 254.01044 574.91876 253.74481Q574.91876 253.24481 574.7 253.01044Q574.48126 252.76044 574.04376 252.76044ZM578.825 258.6823Q578.40314 258.6823 578.15314 258.9948Q577.95 259.2917 577.95 259.7448Q577.95 260.13544 578.2 260.33856Q578.45 260.52606 578.96564 260.52606Q579.4344 260.52606 579.65314 260.26044Q579.8875 259.9792 579.8875 259.4167Q579.8875 259.07294 579.52814 258.8698Q579.21564 258.6823 578.825 258.6823Z" fill-rule="nonzero"/><path stroke="#757575" stroke-width="1.0" stroke-linecap="butt" d="M581.45 245.90105L455.26666 245.90105L435.21606 245.90105" fill-rule="nonzero"/><path fill="#9e9e9e" d="M437.21606 245.90105C437.21606 244.79648 436.32062 243.90105 435.21606 243.90105C434.11148 243.90105 433.21606 244.79648 433.21606 245.90105C433.21606 247.00562 434.11148 247.90105 435.21606 247.90105C436.32062 247.90105 437.21606 247.00562 437.21606 245.90105" fill-rule="nonzero"/><path fill="#757575" d="M27.70625 32.1125L22.58125 32.1125L21.675 34.20625Q21.346874 34.971874 21.346874 35.3625Q21.346874 35.659374 21.628124 35.89375Q21.925 36.1125 22.878124 36.190624L22.878124 36.55L18.70625 36.55L18.70625 36.190624Q19.534374 36.034374 19.784374 35.8Q20.284374 35.33125 20.878124 33.909374L25.55 23.003124L25.878124 23.003124L30.4875 34.01875Q31.05 35.346874 31.503124 35.753124Q31.95625 36.14375 32.76875 36.190624L32.76875 36.55L27.55 36.55L27.55 36.190624Q28.33125 36.14375 28.6125 35.925Q28.89375 35.70625 28.89375 35.378124Q28.89375 34.940624 28.503124 34.01875L27.70625 32.1125ZM27.425 31.39375L25.175 26.034374L22.878124 31.39375L27.425 31.39375ZM40.76875 33.14375Q40.409374 34.925 39.346874 35.878124Q38.3 36.83125 37.01875 36.83125Q35.503124 36.83125 34.3625 35.55Q33.2375 34.26875 33.2375 32.08125Q33.2375 29.971874 34.4875 28.659374Q35.7375 27.346874 37.503124 27.346874Q38.815624 27.346874 39.659374 28.05Q40.51875 28.7375 40.51875 29.4875Q40.51875 29.8625 40.26875 30.096874Q40.034374 30.315624 39.6125 30.315624Q39.034374 30.315624 38.7375 29.940624Q38.58125 29.7375 38.51875 29.175Q38.471874 28.596874 38.128124 28.284374Q37.784374 27.9875 37.175 27.9875Q36.20625 27.9875 35.6125 28.721874Q34.815624 29.675 34.815624 31.253124Q34.815624 32.846874 35.596874 34.08125Q36.39375 35.3 37.721874 35.3Q38.690624 35.3 39.440624 34.64375Q39.9875 34.190624 40.4875 33.01875L40.76875 33.14375ZM49.76875 33.14375Q49.409374 34.925 48.346874 35.878124Q47.3 36.83125 46.01875 36.83125Q44.503124 36.83125 43.3625 35.55Q42.2375 34.26875 42.2375 32.08125Q42.2375 29.971874 43.4875 28.659374Q44.7375 27.346874 46.503124 27.346874Q47.815624 27.346874 48.659374 28.05Q49.51875 28.7375 49.51875 29.4875Q49.51875 29.8625 49.26875 30.096874Q49.034374 30.315624 48.6125 30.315624Q48.034374 30.315624 47.7375 29.940624Q47.58125 29.7375 47.51875 29.175Q47.471874 28.596874 47.128124 28.284374Q46.784374 27.9875 46.175 27.9875Q45.20625 27.9875 44.6125 28.721874Q43.815624 29.675 43.815624 31.253124Q43.815624 32.846874 44.596874 34.08125Q45.39375 35.3 46.721874 35.3Q47.690624 35.3 48.440624 34.64375Q48.9875 34.190624 49.4875 33.01875L49.76875 33.14375ZM55.55 27.346874Q57.58125 27.346874 58.815624 28.878124Q59.8625 30.20625 59.8625 31.909374Q59.8625 33.1125 59.284374 34.346874Q58.70625 35.565624 57.690624 36.20625Q56.690624 36.83125 55.440624 36.83125Q53.425 36.83125 52.2375 35.20625Q51.221874 33.846874 51.221874 32.159374Q51.221874 30.940624 51.83125 29.721874Q52.440624 28.503124 53.440624 27.925Q54.440624 27.346874 55.55 27.346874ZM55.253124 27.971874Q54.7375 27.971874 54.20625 28.284374Q53.690624 28.596874 53.3625 29.3625Q53.034374 30.128124 53.034374 31.346874Q53.034374 33.3 53.815624 34.721874Q54.596874 36.128124 55.8625 36.128124Q56.815624 36.128124 57.425 35.346874Q58.034374 34.565624 58.034374 32.659374Q58.034374 30.284374 57.01875 28.909374Q56.315624 27.971874 55.253124 27.971874ZM63.83125 29.2375Q64.81563 28.26875 64.9875 28.128124Q65.425 27.753124 65.925 27.55Q66.44063 27.346874 66.94063 27.346874Q67.78438 27.346874 68.37813 27.83125Q68.9875 28.315624 69.19063 29.2375Q70.20625 28.065624 70.89375 27.70625Q71.58125 27.346874 72.31563 27.346874Q73.03438 27.346874 73.58125 27.70625Q74.12813 28.065624 74.45625 28.909374Q74.675 29.471874 74.675 30.675L74.675 34.534374Q74.675 35.3625 74.8 35.675Q74.89375 35.89375 75.15938 36.05Q75.425 36.190624 76.01875 36.190624L76.01875 36.55L71.6125 36.55L71.6125 36.190624L71.78438 36.190624Q72.3625 36.190624 72.69063 35.971874Q72.90938 35.815624 73.01875 35.471874Q73.05 35.315624 73.05 34.534374L73.05 30.675Q73.05 29.58125 72.78438 29.14375Q72.40938 28.51875 71.56563 28.51875Q71.05 28.51875 70.51875 28.784374Q70.00313 29.034374 69.26875 29.7375L69.2375 29.846874L69.26875 30.253124L69.26875 34.534374Q69.26875 35.440624 69.3625 35.675Q69.47188 35.89375 69.75313 36.05Q70.03438 36.190624 70.72188 36.190624L70.72188 36.55L66.19063 36.55L66.19063 36.190624Q66.94063 36.190624 67.20625 36.01875Q67.4875 35.846874 67.59688 35.4875Q67.64375 35.33125 67.64375 34.534374L67.64375 30.675Q67.64375 29.58125 67.33125 29.1125Q66.89375 28.4875 66.12813 28.4875Q65.59688 28.4875 65.08125 28.76875Q64.26875 29.190624 63.83125 29.7375L63.83125 34.534374Q63.83125 35.409374 63.95625 35.675Q64.08125 35.940624 64.31563 36.065624Q64.55 36.190624 65.28438 36.190624L65.28438 36.55L60.8625 36.55L60.8625 36.190624Q61.471874 36.190624 61.721874 36.065624Q61.971874 35.940624 62.096874 35.659374Q62.221874 35.3625 62.221874 34.534374L62.221874 31.1125Q62.221874 29.628124 62.128124 29.20625Q62.065624 28.878124 61.909374 28.76875Q61.76875 28.64375 61.51875 28.64375Q61.2375 28.64375 60.8625 28.784374L60.721874 28.440624L63.409374 27.346874L63.83125 27.346874L63.83125 29.2375ZM77.83125 29.2375Q78.81563 28.26875 78.9875 28.128124Q79.425 27.753124 79.925 27.55Q80.44063 27.346874 80.94063 27.346874Q81.78438 27.346874 82.37813 27.83125Q82.9875 28.315624 83.19063 29.2375Q84.20625 28.065624 84.89375 27.70625Q85.58125 27.346874 86.31563 27.346874Q87.03438 27.346874 87.58125 27.70625Q88.12813 28.065624 88.45625 28.909374Q88.675 29.471874 88.675 30.675L88.675 34.534374Q88.675 35.3625 88.8 35.675Q88.89375 35.89375 89.15938 36.05Q89.425 36.190624 90.01875 36.190624L90.01875 36.55L85.6125 36.55L85.6125 36.190624L85.78438 36.190624Q86.3625 36.190624 86.69063 35.971874Q86.90938 35.815624 87.01875 35.471874Q87.05 35.315624 87.05 34.534374L87.05 30.675Q87.05 29.58125 86.78438 29.14375Q86.40938 28.51875 85.56563 28.51875Q85.05 28.51875 84.51875 28.784374Q84.00313 29.034374 83.26875 29.7375L83.2375 29.846874L83.26875 30.253124L83.26875 34.534374Q83.26875 35.440624 83.3625 35.675Q83.47188 35.89375 83.75313 36.05Q84.03438 36.190624 84.72188 36.190624L84.72188 36.55L80.19063 36.55L80.19063 36.190624Q80.94063 36.190624 81.20625 36.01875Q81.4875 35.846874 81.59688 35.4875Q81.64375 35.33125 81.64375 34.534374L81.64375 30.675Q81.64375 29.58125 81.33125 29.1125Q80.89375 28.4875 80.12813 28.4875Q79.59688 28.4875 79.08125 28.76875Q78.26875 29.190624 77.83125 29.7375L77.83125 34.534374Q77.83125 35.409374 77.95625 35.675Q78.08125 35.940624 78.31563 36.065624Q78.55 36.190624 79.28438 36.190624L79.28438 36.55L74.8625 36.55L74.8625 36.190624Q75.47188 36.190624 75.72188 36.065624Q75.97188 35.940624 76.09688 35.659374Q76.22188 35.3625 76.22188 34.534374L76.22188 31.1125Q76.22188 29.628124 76.12813 29.20625Q76.06563 28.878124 75.90938 28.76875Q75.76875 28.64375 75.51875 28.64375Q75.2375 28.64375 74.8625 28.784374L74.72188 28.440624L77.40938 27.346874L77.83125 27.346874L77.83125 29.2375ZM93.55 27.346874Q95.58125 27.346874 96.81563 28.878124Q97.8625 30.20625 97.8625 31.909374Q97.8625 33.1125 97.28438 34.346874Q96.70625 35.565624 95.69063 36.20625Q94.69063 36.83125 93.44063 36.83125Q91.425 36.83125 90.2375 35.20625Q89.22188 33.846874 89.22188 32.159374Q89.22188 30.940624 89.83125 29.721874Q90.44063 28.503124 91.44063 27.925Q92.44063 27.346874 93.55 27.346874ZM93.25313 27.971874Q92.7375 27.971874 92.20625 28.284374Q91.69063 28.596874 91.3625 29.3625Q91.03438 30.128124 91.03438 31.346874Q91.03438 33.3 91.81563 34.721874Q92.59688 36.128124 93.8625 36.128124Q94.81563 36.128124 95.425 35.346874Q96.03438 34.565624 96.03438 32.659374Q96.03438 30.284374 95.01875 28.909374Q94.31563 27.971874 93.25313 27.971874ZM105.4875 35.55Q104.84688 36.221874 104.22188 36.534374Q103.59688 36.83125 102.8625 36.83125Q101.40938 36.83125 100.31563 35.6125Q99.22188 34.378124 99.22188 32.440624Q99.22188 30.51875 100.425 28.925Q101.64375 27.33125 103.53438 27.33125Q104.72188 27.33125 105.4875 28.08125L105.4875 26.425Q105.4875 24.89375 105.40938 24.55Q105.34688 24.190624 105.19063 24.065624Q105.03438 23.940624 104.8 23.940624Q104.55 23.940624 104.12813 24.096874L104.00313 23.753124L106.65938 22.659374L107.1125 22.659374L107.1125 33.003124Q107.1125 34.58125 107.175 34.925Q107.25313 35.26875 107.40938 35.409374Q107.58125 35.55 107.78438 35.55Q108.05 35.55 108.4875 35.378124L108.59688 35.721874L105.94063 36.83125L105.4875 36.83125L105.4875 35.55ZM105.4875 34.8625L105.4875 30.253124Q105.44063 29.58125 105.14375 29.034374Q104.84688 28.4875 104.3625 28.221874Q103.87813 27.940624 103.425 27.940624Q102.56563 27.940624 101.89375 28.70625Q101.00313 29.721874 101.00313 31.675Q101.00313 33.64375 101.8625 34.70625Q102.72188 35.753124 103.76875 35.753124Q104.65938 35.753124 105.4875 34.8625ZM114.2375 35.253124Q112.8625 36.33125 112.51875 36.4875Q111.9875 36.7375 111.39375 36.7375Q110.47188 36.7375 109.8625 36.1125Q109.26875 35.471874 109.26875 34.425Q109.26875 33.76875 109.55 33.3Q109.95625 32.628124 110.94063 32.05Q111.94063 31.45625 114.2375 30.628124L114.2375 30.26875Q114.2375 28.925 113.81563 28.440624Q113.39375 27.940624 112.58125 27.940624Q111.97188 27.940624 111.6125 28.26875Q111.2375 28.596874 111.2375 29.034374L111.25313 29.596874Q111.25313 30.05 111.01875 30.3Q110.8 30.534374 110.425 30.534374Q110.06563 30.534374 109.83125 30.284374Q109.6125 30.01875 109.6125 29.58125Q109.6125 28.753124 110.47188 28.05Q111.33125 27.346874 112.87813 27.346874Q114.06563 27.346874 114.83125 27.7375Q115.40938 28.05 115.675 28.690624Q115.8625 29.1125 115.8625 30.409374L115.8625 33.440624Q115.8625 34.721874 115.90938 35.01875Q115.95625 35.3 116.06563 35.39375Q116.175 35.4875 116.33125 35.4875Q116.4875 35.4875 116.59688 35.425Q116.8 35.3 117.39375 34.70625L117.39375 35.253124Q116.3 36.721874 115.3 36.721874Q114.81563 36.721874 114.53438 36.39375Q114.25313 36.065624 114.2375 35.253124ZM114.2375 34.628124L114.2375 31.221874Q112.76875 31.8 112.34688 32.05Q111.56563 32.471874 111.2375 32.940624Q110.90938 33.409374 110.90938 33.971874Q110.90938 34.675 111.31563 35.14375Q111.7375 35.596874 112.28438 35.596874Q113.03438 35.596874 114.2375 34.628124ZM120.76875 24.659374L120.76875 27.596874L122.8625 27.596874L122.8625 28.284374L120.76875 28.284374L120.76875 34.08125Q120.76875 34.95625 121.01875 35.26875Q121.26875 35.565624 121.65938 35.565624Q121.9875 35.565624 122.28438 35.3625Q122.59688 35.159374 122.75313 34.76875L123.14375 34.76875Q122.8 35.721874 122.175 36.20625Q121.55 36.690624 120.87813 36.690624Q120.425 36.690624 119.9875 36.440624Q119.56563 36.190624 119.3625 35.7375Q119.15938 35.26875 119.15938 34.3L119.15938 28.284374L117.75313 28.284374L117.75313 27.971874Q118.28438 27.753124 118.84688 27.2375Q119.40938 26.721874 119.84688 26.01875Q120.06563 25.64375 120.47188 24.659374L120.76875 24.659374ZM125.45625 22.659374Q125.8625 22.659374 126.14375 22.95625Q126.44063 23.2375 126.44063 23.64375Q126.44063 24.065624 126.14375 24.3625Q125.8625 24.64375 125.45625 24.64375Q125.03438 24.64375 124.7375 24.3625Q124.45625 24.065624 124.45625 23.64375Q124.45625 23.2375 124.7375 22.95625Q125.03438 22.659374 125.45625 22.659374ZM126.26875 27.346874L126.26875 34.534374Q126.26875 35.3625 126.37813 35.64375Q126.50313 35.925 126.7375 36.065624Q126.9875 36.190624 127.6125 36.190624L127.6125 36.55L123.26875 36.55L123.26875 36.190624Q123.925 36.190624 124.14375 36.065624Q124.37813 35.940624 124.50313 35.659374Q124.64375 35.3625 124.64375 34.534374L124.64375 31.08125Q124.64375 29.628124 124.55 29.190624Q124.4875 28.878124 124.33125 28.76875Q124.19063 28.64375 123.94063 28.64375Q123.65938 28.64375 123.26875 28.784374L123.14375 28.440624L125.83125 27.346874L126.26875 27.346874ZM133.55 27.346874Q135.58125 27.346874 136.81563 28.878124Q137.8625 30.20625 137.8625 31.909374Q137.8625 33.1125 137.28438 34.346874Q136.70625 35.565624 135.69063 36.20625Q134.69063 36.83125 133.44063 36.83125Q131.425 36.83125 130.2375 35.20625Q129.22188 33.846874 129.22188 32.159374Q129.22188 30.940624 129.83125 29.721874Q130.44063 28.503124 131.44063 27.925Q132.44063 27.346874 133.55 27.346874ZM133.25313 27.971874Q132.7375 27.971874 132.20625 28.284374Q131.69063 28.596874 131.3625 29.3625Q131.03438 30.128124 131.03438 31.346874Q131.03438 33.3 131.81563 34.721874Q132.59688 36.128124 133.8625 36.128124Q134.81563 36.128124 135.425 35.346874Q136.03438 34.565624 136.03438 32.659374Q136.03438 30.284374 135.01875 28.909374Q134.31563 27.971874 133.25313 27.971874ZM141.78438 29.2375Q143.3625 27.346874 144.78438 27.346874Q145.51875 27.346874 146.03438 27.70625Q146.56563 28.065624 146.87813 28.909374Q147.09688 29.503124 147.09688 30.70625L147.09688 34.534374Q147.09688 35.378124 147.2375 35.675Q147.34688 35.925 147.58125 36.065624Q147.81563 36.190624 148.45625 36.190624L148.45625 36.55L144.03438 36.55L144.03438 36.190624L144.22188 36.190624Q144.84688 36.190624 145.09688 36.003124Q145.34688 35.815624 145.44063 35.440624Q145.4875 35.3 145.4875 34.534374L145.4875 30.8625Q145.4875 29.64375 145.15938 29.096874Q144.84688 28.534374 144.09688 28.534374Q142.94063 28.534374 141.78438 29.815624L141.78438 34.534374Q141.78438 35.440624 141.89375 35.64375Q142.03438 35.940624 142.26875 36.065624Q142.50313 36.190624 143.2375 36.190624L143.2375 36.55L138.81563 36.55L138.81563 36.190624L139.00313 36.190624Q139.69063 36.190624 139.925 35.846874Q140.175 35.503124 140.175 34.534374L140.175 31.20625Q140.175 29.596874 140.09688 29.253124Q140.01875 28.89375 139.8625 28.76875Q139.72188 28.64375 139.47188 28.64375Q139.19063 28.64375 138.81563 28.784374L138.675 28.440624L141.3625 27.346874L141.78438 27.346874L141.78438 29.2375Z" fill-rule="nonzero"/></svg>