<svg version="1.1" viewBox="0.0 0.0 600.0 371.0" fill="none" stroke="none" stroke-linecap="square" stroke-miterlimit="10" width="600" height="371" xmlns:xlink="http://www.w3.org/1999/xlink" xmlns="http://www.w3.org/2000/svg"><path fill="#ffffff" d="M0 0L600.0 0L600.0 371.0L0 371.0L0 0Z" fill-rule="nonzero"/><path fill="#145f82" d="M300.0 53.916668C371.07184 53.916668 432.28708 104.02756 446.3257 173.69908C460.36435 243.3706 423.33246 313.27805 357.80667 340.8021L300.0 203.18333Z" fill-rule="nonzero"/><path fill="#4ea72e" d="M294.06567 54.034676C296.04282 53.956013 298.0213 53.916668 300.0 53.916668L300.0 203.18333Z" fill-rule="nonzero"/><path fill="#a02b93" d="M270.51575 56.857613C278.2784 55.293453 286.15326 54.3495 294.06567 54.034676L300.0 203.18333Z" fill-rule="nonzero"/><path fill="#0f9ed5" d="M264.72165 58.14549C266.6443 57.677837 268.57605 57.24846 270.51575 56.857613L300.0 203.18333Z" fill-rule="nonzero"/><path fill="#186c24" d="M178.20264 289.4732C149.61115 249.11656 142.86603 197.21799 160.19183 150.8936C177.51765 104.56922 216.66446 69.8347 264.72165 58.14549L300.0 203.18333Z" fill-rule="nonzero"/><path fill="#e87331" d="M357.80667 340.8021C293.3075 367.89493 218.64499 346.5572 178.20264 289.4732L300.0 203.18333Z" fill-rule="nonzero"/><path fill="#000000" d="M24.7375 60.58854Q24.596874 60.58854 24.440624 60.541664Q23.690624 60.291664 22.596874 60.291664Q22.2375 60.291664 21.76875 60.33854Q21.3 60.385414 20.7375 60.479164Q20.753124 61.604164 20.7375 62.416664Q21.628124 62.197914 22.20625 62.197914Q23.3 62.197914 24.1125 62.291664Q24.8625 62.385414 24.8625 63.08854Q24.8625 63.43229 24.628124 63.666664Q24.39375 63.885414 24.034374 63.885414Q23.7375 63.885414 23.128124 63.83854Q22.51875 63.791664 22.20625 63.791664Q21.784374 63.791664 20.7375 64.072914L20.7375 67.74479Q20.7375 68.08854 20.471874 68.30729Q20.20625 68.541664 19.8625 68.541664Q19.51875 68.541664 19.3 68.30729Q19.096874 68.08854 19.096874 67.74479L19.096874 61.02604Q19.096874 60.791664 19.096874 60.33854Q19.1125 59.86979 19.1125 59.635414Q19.1125 59.291664 19.346874 59.072914Q19.58125 58.83854 19.925 58.83854Q20.14375 58.83854 20.315624 58.93229Q21.003124 58.80729 21.565624 58.760414Q22.14375 58.697914 22.596874 58.697914Q23.26875 58.697914 24.26875 58.979164Q25.55 59.322914 25.55 59.77604Q25.55 60.104164 25.3 60.354164Q25.065624 60.58854 24.7375 60.58854ZM29.096874 68.18229Q27.70625 68.18229 26.815624 67.510414Q25.83125 66.77604 25.83125 65.43229Q25.83125 63.947914 26.6125 62.93229Q27.471874 61.791664 28.940624 61.791664Q29.95625 61.791664 30.64375 62.11979Q31.51875 62.55729 31.51875 63.46354Q31.51875 64.11979 30.8 64.604164Q30.471874 64.83854 29.4875 65.27604L27.503124 66.15104Q27.784374 66.46354 28.175 66.61979Q28.58125 66.760414 29.096874 66.760414Q29.89375 66.760414 30.425 66.43229Q30.925 66.15104 31.20625 66.15104Q31.815624 66.15104 31.815624 66.74479Q31.815624 67.416664 30.846874 67.83854Q30.01875 68.18229 29.096874 68.18229ZM28.940624 63.21354Q28.39375 63.21354 28.003124 63.572914Q27.628124 63.93229 27.39375 64.666664Q28.05 64.36979 28.70625 64.08854Q29.503124 63.74479 29.971874 63.43229Q29.58125 63.21354 28.940624 63.21354ZM38.065624 63.697914Q38.003124 64.58854 37.2375 64.58854Q36.503124 64.58854 36.503124 63.822914L36.471874 63.229164Q35.159374 63.447914 34.596874 64.58854L34.596874 67.541664Q34.596874 67.86979 34.3625 68.08854Q34.14375 68.30729 33.784374 68.30729Q33.425 68.30729 33.221874 68.072914Q33.034374 67.86979 33.034374 67.541664L33.034374 63.697914Q33.034374 63.510414 33.05 63.15104Q33.065624 62.791664 33.065624 62.61979Q33.065624 62.291664 33.253124 62.072914Q33.45625 61.83854 33.815624 61.83854Q34.471874 61.83854 34.596874 62.510414Q35.628124 61.74479 36.89375 61.74479Q38.065624 61.74479 38.065624 63.291664Q38.065624 63.604164 38.065624 63.697914ZM44.065624 63.697914Q44.003124 64.58854 43.2375 64.58854Q42.503124 64.58854 42.503124 63.822914L42.471874 63.229164Q41.159374 63.447914 40.596874 64.58854L40.596874 67.541664Q40.596874 67.86979 40.3625 68.08854Q40.14375 68.30729 39.784374 68.30729Q39.425 68.30729 39.221874 68.072914Q39.034374 67.86979 39.034374 67.541664L39.034374 63.697914Q39.034374 63.510414 39.05 63.15104Q39.065624 62.791664 39.065624 62.61979Q39.065624 62.291664 39.253124 62.072914Q39.45625 61.83854 39.815624 61.83854Q40.471874 61.83854 40.596874 62.510414Q41.628124 61.74479 42.89375 61.74479Q44.065624 61.74479 44.065624 63.291664Q44.065624 63.604164 44.065624 63.697914ZM50.971874 62.96354Q50.33125 64.291664 48.95625 67.135414Q48.20625 68.666664 47.815624 69.68229Q47.690624 70.041664 47.425 70.760414Q47.20625 71.30729 46.675 71.30729Q46.33125 71.30729 46.08125 71.08854Q45.83125 70.86979 45.83125 70.541664Q45.83125 70.010414 47.08125 67.322914Q46.425 66.041664 45.034374 63.572914Q44.89375 63.354164 44.7375 63.11979Q44.58125 62.854164 44.58125 62.635414Q44.58125 62.30729 44.83125 62.072914Q45.096874 61.83854 45.425 61.83854Q45.8 61.83854 46.01875 62.11979Q46.846874 63.229164 47.95625 65.447914Q48.58125 64.072914 48.721874 63.77604Q49.14375 62.90104 49.534374 62.24479Q49.784374 61.822914 50.221874 61.822914Q50.55 61.822914 50.8 62.041664Q51.065624 62.260414 51.065624 62.58854Q51.065624 62.760414 50.971874 62.96354Z" fill-rule="nonzero"/><path fill="#9e9e9e" d="M24.45625 88.93229Q24.315624 88.93229 24.003124 88.885414Q23.690624 88.822914 23.565624 88.822914L21.83125 88.822914Q21.6125 88.822914 21.159374 88.885414Q20.70625 88.93229 20.4875 88.93229Q20.425 88.93229 20.3 88.916664Q20.175 88.885414 20.1125 88.885414Q19.58125 88.885414 19.39375 88.46354Q19.284374 88.18229 19.284374 87.61979Q19.284374 86.52604 19.76875 85.791664Q20.14375 85.229164 20.971874 84.65104Q21.76875 84.135414 22.55 83.61979Q23.471874 82.947914 23.471874 82.08854Q23.471874 81.86979 23.096874 81.65104Q22.7375 81.43229 22.39375 81.43229Q21.76875 81.43229 21.065624 81.99479Q20.378124 82.541664 20.128124 82.541664Q19.815624 82.541664 19.58125 82.385414Q19.284374 82.197914 19.284374 81.854164Q19.284374 81.510414 19.58125 81.24479Q20.284374 80.61979 20.815624 80.33854Q21.58125 79.916664 22.39375 79.916664Q23.409374 79.916664 24.221874 80.447914Q25.14375 81.05729 25.14375 82.041664Q25.14375 83.041664 24.690624 83.729164Q24.33125 84.291664 23.565624 84.822914Q22.83125 85.27604 22.096874 85.74479Q20.9875 86.46354 20.89375 87.40104Q21.221874 87.354164 21.846874 87.30729Q23.096874 87.24479 23.64375 87.24479Q24.14375 87.24479 24.628124 87.46354Q25.2375 87.729164 25.2375 88.15104Q25.2375 88.447914 25.01875 88.68229Q24.8 88.93229 24.45625 88.93229ZM28.128124 89.52604Q27.7375 89.52604 27.45625 89.27604Q27.175 89.041664 27.175 88.729164Q27.175 88.416664 27.45625 88.18229Q27.7375 87.93229 28.128124 87.93229Q28.55 87.93229 28.815624 88.166664Q29.096874 88.40104 29.096874 88.729164Q29.096874 89.041664 28.815624 89.27604Q28.534374 89.52604 28.128124 89.52604ZM33.846874 89.291664Q32.05 89.291664 31.20625 88.010414Q31.05 87.791664 31.05 87.572914Q31.05 87.260414 31.3 87.041664Q31.565624 86.822914 31.878124 86.822914Q32.20625 86.822914 32.440624 87.05729Q32.846874 87.49479 32.89375 87.52604Q33.2375 87.760414 33.846874 87.760414Q34.753124 87.760414 35.346874 87.104164Q35.925 86.46354 35.925 85.55729Q35.925 84.68229 35.628124 84.260414Q35.346874 83.822914 34.76875 83.822914Q33.7375 83.822914 33.1125 84.479164Q32.8625 84.760414 32.6125 85.041664Q32.284374 85.33854 31.940624 85.33854Q31.596874 85.33854 31.3625 85.11979Q31.14375 84.885414 31.14375 84.572914Q31.14375 84.43229 31.2375 83.55729Q31.425 81.83854 31.425 81.27604Q31.425 81.135414 31.315624 80.885414Q31.221874 80.635414 31.221874 80.49479Q31.221874 80.197914 31.51875 80.05729Q31.753124 79.93229 32.08125 79.93229Q32.190624 79.93229 32.425 79.96354Q32.659374 79.979164 32.784374 79.979164L35.596874 79.979164Q35.70625 79.979164 36.05 79.947914Q36.39375 79.916664 36.503124 79.916664Q36.83125 79.916664 37.034374 80.11979Q37.2375 80.30729 37.2375 80.635414Q37.2375 81.510414 35.45625 81.510414Q35.315624 81.510414 35.096874 81.510414Q34.89375 81.49479 34.815624 81.49479L33.08125 81.49479Q33.065624 81.854164 32.925 82.68229Q33.690624 82.30729 34.76875 82.30729Q36.190624 82.30729 36.925 83.354164Q37.534374 84.229164 37.534374 85.55729Q37.534374 87.15104 36.55 88.197914Q35.534374 89.291664 33.846874 89.291664ZM40.14375 83.104164Q39.221874 83.104164 38.675 82.479164Q38.175 81.90104 38.175 81.041664Q38.175 80.385414 38.8625 79.822914Q39.503124 79.291664 40.159374 79.291664Q41.128124 79.291664 41.690624 79.916664Q42.2375 80.49479 42.2375 81.385414Q42.2375 82.18229 41.55 82.68229Q40.940624 83.104164 40.14375 83.104164ZM44.9875 80.61979Q44.76875 80.947914 44.51875 81.479164Q44.175 82.260414 44.1125 82.385414Q43.721874 83.166664 42.95625 84.74479Q42.940624 84.80729 41.64375 87.40104Q41.45625 87.83854 41.05 88.68229Q40.815624 89.08854 40.39375 89.08854Q40.1125 89.08854 39.878124 88.90104Q39.659374 88.697914 39.659374 88.416664Q39.659374 88.104164 40.55 86.33854L41.628124 84.21354Q42.175 83.104164 43.20625 80.86979Q43.76875 79.510414 44.378124 79.510414Q44.675 79.510414 44.89375 79.71354Q45.128124 79.916664 45.128124 80.21354Q45.128124 80.40104 44.9875 80.61979ZM44.940624 89.041664Q44.05 89.041664 43.45625 88.510414Q42.83125 87.979164 42.83125 87.11979Q42.83125 86.21354 43.3625 85.604164Q43.95625 84.947914 44.925 84.947914Q45.784374 84.947914 46.45625 85.416664Q47.20625 85.947914 47.20625 86.80729Q47.20625 87.760414 46.565624 88.40104Q45.925 89.041664 44.940624 89.041664ZM40.14375 80.68229Q39.95625 80.68229 39.784374 80.80729Q39.628124 80.916664 39.628124 81.041664Q39.628124 81.385414 39.753124 81.55729Q39.89375 81.71354 40.14375 81.71354Q40.409374 81.71354 40.596874 81.61979Q40.784374 81.510414 40.784374 81.385414Q40.784374 81.041664 40.6125 80.86979Q40.45625 80.68229 40.14375 80.68229ZM44.925 86.322914Q44.596874 86.322914 44.440624 86.52604Q44.284374 86.71354 44.284374 87.11979Q44.284374 87.385414 44.471874 87.52604Q44.675 87.65104 45.065624 87.65104Q45.45625 87.65104 45.596874 87.46354Q45.753124 87.27604 45.753124 86.80729Q45.753124 86.61979 45.503124 86.479164Q45.26875 86.322914 44.925 86.322914Z" fill-rule="nonzero"/><path stroke="#757575" stroke-width="1.0" stroke-linecap="butt" d="M18.55 73.416664L144.73334 73.416664L283.12283 62.387928" fill-rule="nonzero"/><path fill="#9e9e9e" d="M285.12283 62.387928C285.12283 61.28336 284.2274 60.387928 283.12283 60.387928C282.01825 60.387928 281.12283 61.28336 281.12283 62.387928C281.12283 63.492496 282.01825 64.387924 283.12283 64.387924C284.2274 64.387924 285.12283 63.492496 285.12283 62.387928" fill-rule="nonzero"/><path fill="#000000" d="M23.7375 147.77371Q22.3625 148.28934 20.284374 148.28934Q19.925 148.28934 19.64375 147.99246Q19.378124 147.69559 19.378124 147.36746L19.378124 141.16434Q19.346874 140.75809 19.346874 140.36746Q19.33125 139.91434 19.378124 139.60184Q19.45625 139.05496 20.39375 138.92996Q20.846874 138.80496 21.878124 138.80496Q22.9875 138.80496 23.9875 139.52371Q25.190624 140.35184 25.190624 141.60184Q25.190624 142.27371 24.940624 142.72684Q24.7375 143.10184 24.26875 143.53934Q24.83125 143.80496 25.26875 144.36746Q25.76875 144.99246 25.76875 145.60184Q25.76875 146.38309 24.925 147.08621Q24.346874 147.53934 23.7375 147.77371ZM21.878124 140.38309Q21.1125 140.38309 20.971874 140.39871L20.971874 141.64871L20.971874 142.86746Q21.503124 142.94559 21.76875 142.91434Q23.565624 142.77371 23.565624 141.60184Q23.565624 141.17996 23.034374 140.78934Q22.4875 140.38309 21.878124 140.38309ZM22.565624 144.53934Q22.01875 144.53934 20.971874 144.49246L20.971874 146.67996Q21.971874 146.63309 23.14375 146.28934Q24.175 146.00809 24.175 145.66434Q24.159374 145.21121 23.503124 144.86746Q23.003124 144.58621 22.565624 144.53934ZM32.284374 144.61746Q32.284374 145.00809 32.284374 145.80496Q32.3 146.60184 32.3 146.99246Q32.3 147.11746 32.315624 147.36746Q32.33125 147.60184 32.33125 147.72684Q32.33125 148.05496 32.096874 148.25809Q31.8625 148.47684 31.51875 148.47684Q31.034374 148.47684 30.8 148.03934Q30.05 148.32059 29.253124 148.32059Q28.425 148.32059 27.846874 147.96121Q27.20625 147.55496 27.096874 146.78934Q26.8625 145.32059 26.8625 144.16434Q26.8625 143.39871 27.034374 142.42996Q27.159374 141.75809 27.83125 141.75809Q28.175 141.75809 28.409374 141.97684Q28.64375 142.19559 28.64375 142.52371Q28.64375 142.77371 28.55 143.33621Q28.471874 143.88309 28.471874 144.16434Q28.471874 144.99246 28.534374 145.61746Q28.596874 146.22684 28.70625 146.63309Q28.846874 146.69559 28.9875 146.72684Q29.128124 146.75809 29.253124 146.75809Q29.909374 146.75809 30.675 146.57059Q30.675 146.13309 30.675 145.55496Q30.659374 144.86746 30.659374 144.57059Q30.659374 143.36746 30.76875 142.49246Q30.8625 141.78934 31.565624 141.78934Q31.925 141.78934 32.159374 142.00809Q32.409374 142.22684 32.39375 142.55496Q32.284374 144.78934 32.284374 144.61746ZM37.26875 143.71121Q36.690624 143.71121 36.58125 143.22684Q36.346874 143.19559 36.096874 143.19559Q34.690624 143.19559 34.690624 143.57059Q34.690624 143.80496 35.534374 144.19559Q36.690624 144.72684 37.096874 145.02371Q37.95625 145.63309 37.95625 146.41434Q37.95625 147.41434 37.01875 147.94559Q36.253124 148.36746 35.159374 148.36746Q34.378124 148.36746 33.7375 148.11746Q32.8625 147.78934 32.8625 147.14871Q32.8625 146.57059 33.55 146.57059Q33.815624 146.57059 34.33125 146.74246Q34.846874 146.89871 35.1125 146.89871Q36.3 146.89871 36.315624 146.42996Q36.315624 146.13309 35.4875 145.75809Q34.284374 145.22684 33.940624 144.99246Q33.1125 144.41434 33.1125 143.58621Q33.1125 142.39871 34.3625 141.99246Q35.096874 141.75809 36.58125 141.75809Q37.175 141.75809 37.45625 141.91434Q37.846874 142.11746 37.846874 142.66434Q37.846874 143.71121 37.26875 143.71121Z" fill-rule="nonzero"/><path fill="#9e9e9e" d="M23.925 164.25809Q25.128124 164.92996 25.128124 166.41434Q25.128124 167.61746 24.2375 168.44559Q23.3625 169.27371 22.096874 169.27371Q21.159374 169.27371 20.39375 168.89871Q19.51875 168.44559 19.221874 167.63309Q19.175 167.50809 19.175 167.36746Q19.175 167.03934 19.440624 166.82059Q19.675 166.61746 20.003124 166.61746Q20.3625 166.61746 20.596874 166.91434Q20.971874 167.41434 21.01875 167.46121Q21.39375 167.75809 22.096874 167.75809Q22.659374 167.75809 23.065624 167.42996Q23.4875 167.08621 23.4875 166.61746Q23.4875 165.16434 21.534374 164.97684Q20.659374 164.88309 20.659374 164.24246Q20.659374 163.75809 21.33125 163.53934Q21.971874 163.39871 22.596874 163.25809Q22.9875 163.13309 23.190624 162.92996Q23.39375 162.72684 23.39375 162.46121Q23.425 161.58621 22.034374 161.58621Q21.58125 161.58621 21.034374 161.92996Q20.4875 162.27371 20.284374 162.27371Q19.95625 162.27371 19.721874 162.03934Q19.4875 161.80496 19.4875 161.49246Q19.4875 160.99246 20.471874 160.50809Q21.346874 160.07059 21.89375 160.07059Q23.221874 160.07059 24.034374 160.63309Q24.925 161.27371 24.925 162.44559Q24.925 163.08621 24.675 163.53934Q24.425 163.99246 23.925 164.25809ZM30.3625 169.00809L28.034374 169.00809Q26.940624 169.00809 26.940624 168.30496Q26.940624 167.52371 28.175 167.52371Q28.284374 167.52371 28.425 167.52371L28.425 162.33621Q27.925 162.67996 27.76875 162.67996Q27.440624 162.67996 27.190624 162.44559Q26.95625 162.21121 26.95625 161.89871Q26.95625 161.58621 27.346874 161.24246L28.003124 160.75809L28.721874 160.19559Q29.159374 159.86746 29.565624 159.86746Q30.096874 159.86746 30.096874 160.50809Q30.096874 161.19559 30.034374 162.46121Q29.9875 163.72684 29.9875 166.08621L29.9875 167.50809L30.3625 167.50809Q30.70625 167.50809 30.940624 167.72684Q31.175 167.92996 31.175 168.25809Q31.175 168.58621 30.940624 168.80496Q30.70625 169.00809 30.3625 169.00809ZM35.128124 169.61746Q34.7375 169.61746 34.45625 169.36746Q34.175 169.13309 34.175 168.82059Q34.175 168.50809 34.45625 168.27371Q34.7375 168.02371 35.128124 168.02371Q35.55 168.02371 35.815624 168.25809Q36.096874 168.49246 36.096874 168.82059Q36.096874 169.13309 35.815624 169.36746Q35.534374 169.61746 35.128124 169.61746ZM41.128124 169.24246Q39.190624 169.24246 38.315624 167.55496Q37.675 166.32059 37.675 164.35184Q37.675 162.67996 38.51875 161.41434Q39.55 159.89871 41.315624 159.89871Q42.9875 159.89871 43.909374 161.24246Q44.690624 162.39871 44.690624 164.00809Q44.690624 166.61746 43.8 167.92996Q42.909374 169.24246 41.128124 169.24246ZM41.3 161.41434Q40.3625 161.41434 39.784374 162.36746Q39.284374 163.17996 39.284374 164.27371Q39.284374 165.69559 39.55 166.47684Q39.9875 167.71121 41.128124 167.71121Q42.096874 167.71121 42.565624 166.83621Q43.05 165.96121 43.05 164.21121Q43.05 162.82059 42.6125 162.11746Q42.175 161.41434 41.3 161.41434ZM47.14375 163.19559Q46.221874 163.19559 45.675 162.57059Q45.175 161.99246 45.175 161.13309Q45.175 160.47684 45.8625 159.91434Q46.503124 159.38309 47.159374 159.38309Q48.128124 159.38309 48.690624 160.00809Q49.2375 160.58621 49.2375 161.47684Q49.2375 162.27371 48.55 162.77371Q47.940624 163.19559 47.14375 163.19559ZM51.9875 160.71121Q51.76875 161.03934 51.51875 161.57059Q51.175 162.35184 51.1125 162.47684Q50.721874 163.25809 49.95625 164.83621Q49.940624 164.89871 48.64375 167.49246Q48.45625 167.92996 48.05 168.77371Q47.815624 169.17996 47.39375 169.17996Q47.1125 169.17996 46.878124 168.99246Q46.659374 168.78934 46.659374 168.50809Q46.659374 168.19559 47.55 166.42996L48.628124 164.30496Q49.175 163.19559 50.20625 160.96121Q50.76875 159.60184 51.378124 159.60184Q51.675 159.60184 51.89375 159.80496Q52.128124 160.00809 52.128124 160.30496Q52.128124 160.49246 51.9875 160.71121ZM51.940624 169.13309Q51.05 169.13309 50.45625 168.60184Q49.83125 168.07059 49.83125 167.21121Q49.83125 166.30496 50.3625 165.69559Q50.95625 165.03934 51.925 165.03934Q52.784374 165.03934 53.45625 165.50809Q54.20625 166.03934 54.20625 166.89871Q54.20625 167.85184 53.565624 168.49246Q52.925 169.13309 51.940624 169.13309ZM47.14375 160.77371Q46.95625 160.77371 46.784374 160.89871Q46.628124 161.00809 46.628124 161.13309Q46.628124 161.47684 46.753124 161.64871Q46.89375 161.80496 47.14375 161.80496Q47.409374 161.80496 47.596874 161.71121Q47.784374 161.60184 47.784374 161.47684Q47.784374 161.13309 47.6125 160.96121Q47.45625 160.77371 47.14375 160.77371ZM51.925 166.41434Q51.596874 166.41434 51.440624 166.61746Q51.284374 166.80496 51.284374 167.21121Q51.284374 167.47684 51.471874 167.61746Q51.675 167.74246 52.065624 167.74246Q52.45625 167.74246 52.596874 167.55496Q52.753124 167.36746 52.753124 166.89871Q52.753124 166.71121 52.503124 166.57059Q52.26875 166.41434 51.925 166.41434Z" fill-rule="nonzero"/><path stroke="#757575" stroke-width="1.0" stroke-linecap="butt" d="M18.55 153.50809L144.73334 153.50809L167.18225 153.50809" fill-rule="nonzero"/><path fill="#9e9e9e" d="M169.18225 153.50809C169.18225 152.40352 168.28682 151.50809 167.18225 151.50809C166.07768 151.50809 165.18225 152.40352 165.18225 153.50809C165.18225 154.61266 166.07768 155.50809 167.18225 155.50809C168.28682 155.50809 169.18225 154.61266 169.18225 153.50809" fill-rule="nonzero"/><path fill="#000000" d="M26.14375 320.41876Q25.690624 320.41876 24.721874 320.35626Q23.784374 320.29376 23.3 320.29376Q23.315624 320.96564 23.45625 322.6844Q23.58125 324.1844 23.58125 325.075Q23.58125 325.2625 23.6125 325.66876Q23.659374 326.0594 23.659374 326.2469Q23.659374 326.7 23.471874 327.04376Q23.2375 327.4969 22.784374 327.4969Q22.471874 327.4969 22.221874 327.29376Q21.940624 327.0594 21.940624 326.71564Q21.940624 326.6375 21.971874 326.46564Q22.003124 326.29376 22.003124 326.21564Q22.003124 325.95 21.95625 325.40314Q21.925 324.85626 21.925 324.575Q21.925 323.79376 21.8 322.45Q21.659374 320.90314 21.64375 320.325L21.33125 320.325Q20.034374 320.325 19.253124 320.1375Q18.6125 319.98126 18.6125 319.3719Q18.6125 319.075 18.815624 318.825Q19.065624 318.54376 19.471874 318.575Q19.675 318.59064 20.39375 318.66876Q20.971874 318.73126 21.33125 318.73126Q21.690624 318.73126 22.39375 318.73126Q23.1125 318.71564 23.471874 318.71564Q23.925 318.71564 24.815624 318.77814Q25.70625 318.84064 26.14375 318.84064Q26.503124 318.84064 26.7375 319.075Q26.971874 319.29376 26.971874 319.6219Q26.971874 319.96564 26.7375 320.2Q26.503124 320.41876 26.14375 320.41876ZM32.065624 323.23126Q32.003124 324.1219 31.2375 324.1219Q30.503124 324.1219 30.503124 323.35626L30.471874 322.7625Q29.159374 322.98126 28.596874 324.1219L28.596874 327.075Q28.596874 327.40314 28.3625 327.6219Q28.14375 327.84064 27.784374 327.84064Q27.425 327.84064 27.221874 327.60626Q27.034374 327.40314 27.034374 327.075L27.034374 323.23126Q27.034374 323.04376 27.05 322.6844Q27.065624 322.325 27.065624 322.15314Q27.065624 321.825 27.253124 321.60626Q27.45625 321.3719 27.815624 321.3719Q28.471874 321.3719 28.596874 322.04376Q29.628124 321.27814 30.89375 321.27814Q32.065624 321.27814 32.065624 322.825Q32.065624 323.1375 32.065624 323.23126ZM38.20625 327.84064Q37.940624 327.84064 37.346874 327.2469Q36.815624 327.5125 36.39375 327.6375Q35.9875 327.77814 35.70625 327.77814Q34.284374 327.77814 33.58125 327.02814Q32.878124 326.2625 32.878124 324.7469Q32.878124 323.34064 33.925 322.34064Q34.971874 321.325 36.425 321.325Q36.971874 321.325 37.70625 321.65314Q38.596874 322.02814 38.596874 322.52814Q38.596874 322.7469 38.45625 322.90314Q38.39375 323.1375 38.3625 323.4969Q38.33125 323.84064 38.33125 324.325Q38.33125 325.4344 38.4875 325.9344Q38.503124 325.98126 38.76875 326.54376Q38.9875 327.04376 38.9875 327.1219Q38.9875 327.41876 38.753124 327.6219Q38.51875 327.84064 38.20625 327.84064ZM36.753124 323.8094Q36.753124 323.6219 36.76875 323.3875Q36.8 323.1375 36.8625 322.84064Q36.7375 322.77814 36.64375 322.7625Q36.565624 322.73126 36.4875 322.73126Q35.690624 322.73126 35.096874 323.35626Q34.503124 323.98126 34.503124 324.79376Q34.503124 325.59064 34.784374 325.98126Q35.065624 326.3719 35.628124 326.3719Q35.9875 326.3719 36.315624 326.2625Q36.64375 326.1375 36.925 325.90314Q36.753124 324.5125 36.753124 323.8094ZM41.4875 320.40314Q41.1125 320.40314 40.83125 320.15314Q40.565624 319.90314 40.565624 319.54376Q40.565624 319.16876 40.83125 318.91876Q41.1125 318.66876 41.4875 318.66876Q41.8625 318.66876 42.128124 318.91876Q42.409374 319.16876 42.409374 319.54376Q42.409374 319.90314 42.128124 320.15314Q41.8625 320.40314 41.4875 320.40314ZM41.9875 324.7Q41.9875 325.02814 42.003124 325.77814Q42.01875 326.5125 42.01875 326.84064Q42.01875 327.1844 41.784374 327.40314Q41.565624 327.6219 41.221874 327.6219Q40.8625 327.6219 40.628124 327.40314Q40.409374 327.1844 40.409374 326.84064Q40.409374 326.5125 40.378124 325.77814Q40.3625 325.02814 40.3625 324.7Q40.3625 324.1844 40.425 323.40314Q40.4875 322.60626 40.4875 322.09064Q40.4875 321.7469 40.70625 321.52814Q40.940624 321.3094 41.284374 321.3094Q41.64375 321.3094 41.8625 321.52814Q42.096874 321.7469 42.096874 322.09064Q42.096874 322.60626 42.034374 323.40314Q41.9875 324.1844 41.9875 324.7ZM47.76875 327.8719Q47.05 327.8719 46.95625 327.15314Q46.878124 326.5594 46.8 325.95Q46.70625 325.29376 46.70625 324.73126Q46.70625 324.575 46.721874 324.21564Q46.753124 323.84064 46.753124 323.6844Q46.753124 323.65314 46.753124 323.48126Q46.76875 323.3094 46.76875 323.2Q46.76875 322.71564 46.51875 322.71564Q45.9875 322.71564 45.45625 323.35626Q44.940624 323.98126 44.659374 324.95Q44.64375 325.1375 44.596874 325.46564Q44.565624 325.73126 44.565624 325.98126Q44.565624 326.1375 44.596874 326.48126Q44.64375 326.8094 44.64375 326.96564Q44.64375 327.3094 44.409374 327.52814Q44.175 327.7469 43.83125 327.7469Q43.471874 327.7469 43.2375 327.52814Q43.01875 327.3094 43.01875 326.96564Q43.01875 326.8094 42.9875 326.48126Q42.95625 326.1375 42.95625 325.98126Q42.95625 325.41876 43.034374 324.41876Q43.1125 323.41876 43.1125 322.85626Q43.1125 322.66876 43.08125 322.325Q43.065624 321.98126 43.065624 321.8094Q43.065624 321.48126 43.3 321.2625Q43.55 321.04376 43.89375 321.04376Q44.659374 321.04376 44.70625 321.96564L44.721874 322.02814Q45.58125 321.16876 46.51875 321.16876Q47.628124 321.16876 48.05 322.10626Q48.33125 322.71564 48.33125 323.95L48.33125 324.3719Q48.33125 324.6375 48.33125 324.7469Q48.33125 325.21564 48.45625 325.9344Q48.58125 326.65314 48.58125 327.10626Q48.58125 327.4344 48.346874 327.65314Q48.1125 327.8719 47.76875 327.8719Z" fill-rule="nonzero"/><path fill="#9e9e9e" d="M24.45625 348.46564Q24.315624 348.46564 24.003124 348.41876Q23.690624 348.35626 23.565624 348.35626L21.83125 348.35626Q21.6125 348.35626 21.159374 348.41876Q20.70625 348.46564 20.4875 348.46564Q20.425 348.46564 20.3 348.45Q20.175 348.41876 20.1125 348.41876Q19.58125 348.41876 19.39375 347.9969Q19.284374 347.71564 19.284374 347.15314Q19.284374 346.0594 19.76875 345.325Q20.14375 344.7625 20.971874 344.1844Q21.76875 343.66876 22.55 343.15314Q23.471874 342.48126 23.471874 341.6219Q23.471874 341.40314 23.096874 341.1844Q22.7375 340.96564 22.39375 340.96564Q21.76875 340.96564 21.065624 341.52814Q20.378124 342.075 20.128124 342.075Q19.815624 342.075 19.58125 341.91876Q19.284374 341.73126 19.284374 341.3875Q19.284374 341.04376 19.58125 340.77814Q20.284374 340.15314 20.815624 339.8719Q21.58125 339.45 22.39375 339.45Q23.409374 339.45 24.221874 339.98126Q25.14375 340.59064 25.14375 341.575Q25.14375 342.575 24.690624 343.2625Q24.33125 343.825 23.565624 344.35626Q22.83125 344.8094 22.096874 345.27814Q20.9875 345.9969 20.89375 346.9344Q21.221874 346.8875 21.846874 346.84064Q23.096874 346.77814 23.64375 346.77814Q24.14375 346.77814 24.628124 346.9969Q25.2375 347.2625 25.2375 347.6844Q25.2375 347.98126 25.01875 348.21564Q24.8 348.46564 24.45625 348.46564ZM30.3625 348.45L28.034374 348.45Q26.940624 348.45 26.940624 347.7469Q26.940624 346.96564 28.175 346.96564Q28.284374 346.96564 28.425 346.96564L28.425 341.77814Q27.925 342.1219 27.76875 342.1219Q27.440624 342.1219 27.190624 341.8875Q26.95625 341.65314 26.95625 341.34064Q26.95625 341.02814 27.346874 340.6844L28.003124 340.2L28.721874 339.6375Q29.159374 339.3094 29.565624 339.3094Q30.096874 339.3094 30.096874 339.95Q30.096874 340.6375 30.034374 341.90314Q29.9875 343.16876 29.9875 345.52814L29.9875 346.95L30.3625 346.95Q30.70625 346.95 30.940624 347.16876Q31.175 347.3719 31.175 347.7Q31.175 348.02814 30.940624 348.2469Q30.70625 348.45 30.3625 348.45ZM35.128124 349.0594Q34.7375 349.0594 34.45625 348.8094Q34.175 348.575 34.175 348.2625Q34.175 347.95 34.45625 347.71564Q34.7375 347.46564 35.128124 347.46564Q35.55 347.46564 35.815624 347.7Q36.096874 347.9344 36.096874 348.2625Q36.096874 348.575 35.815624 348.8094Q35.534374 349.0594 35.128124 349.0594ZM40.846874 348.825Q39.05 348.825 38.20625 347.54376Q38.05 347.325 38.05 347.10626Q38.05 346.79376 38.3 346.575Q38.565624 346.35626 38.878124 346.35626Q39.20625 346.35626 39.440624 346.59064Q39.846874 347.02814 39.89375 347.0594Q40.2375 347.29376 40.846874 347.29376Q41.753124 347.29376 42.346874 346.6375Q42.925 345.9969 42.925 345.09064Q42.925 344.21564 42.628124 343.79376Q42.346874 343.35626 41.76875 343.35626Q40.7375 343.35626 40.1125 344.0125Q39.8625 344.29376 39.6125 344.575Q39.284374 344.8719 38.940624 344.8719Q38.596874 344.8719 38.3625 344.65314Q38.14375 344.41876 38.14375 344.10626Q38.14375 343.96564 38.2375 343.09064Q38.425 341.3719 38.425 340.8094Q38.425 340.66876 38.315624 340.41876Q38.221874 340.16876 38.221874 340.02814Q38.221874 339.73126 38.51875 339.59064Q38.753124 339.46564 39.08125 339.46564Q39.190624 339.46564 39.425 339.4969Q39.659374 339.5125 39.784374 339.5125L42.596874 339.5125Q42.70625 339.5125 43.05 339.48126Q43.39375 339.45 43.503124 339.45Q43.83125 339.45 44.034374 339.65314Q44.2375 339.84064 44.2375 340.16876Q44.2375 341.04376 42.45625 341.04376Q42.315624 341.04376 42.096874 341.04376Q41.89375 341.02814 41.815624 341.02814L40.08125 341.02814Q40.065624 341.3875 39.925 342.21564Q40.690624 341.84064 41.76875 341.84064Q43.190624 341.84064 43.925 342.8875Q44.534374 343.7625 44.534374 345.09064Q44.534374 346.6844 43.55 347.73126Q42.534374 348.825 40.846874 348.825ZM47.14375 342.6375Q46.221874 342.6375 45.675 342.0125Q45.175 341.4344 45.175 340.575Q45.175 339.91876 45.8625 339.35626Q46.503124 338.825 47.159374 338.825Q48.128124 338.825 48.690624 339.45Q49.2375 340.02814 49.2375 340.91876Q49.2375 341.71564 48.55 342.21564Q47.940624 342.6375 47.14375 342.6375ZM51.9875 340.15314Q51.76875 340.48126 51.51875 341.0125Q51.175 341.79376 51.1125 341.91876Q50.721874 342.7 49.95625 344.27814Q49.940624 344.34064 48.64375 346.9344Q48.45625 347.3719 48.05 348.21564Q47.815624 348.6219 47.39375 348.6219Q47.1125 348.6219 46.878124 348.4344Q46.659374 348.23126 46.659374 347.95Q46.659374 347.6375 47.55 345.8719L48.628124 343.7469Q49.175 342.6375 50.20625 340.40314Q50.76875 339.04376 51.378124 339.04376Q51.675 339.04376 51.89375 339.2469Q52.128124 339.45 52.128124 339.7469Q52.128124 339.9344 51.9875 340.15314ZM51.940624 348.575Q51.05 348.575 50.45625 348.04376Q49.83125 347.5125 49.83125 346.65314Q49.83125 345.7469 50.3625 345.1375Q50.95625 344.48126 51.925 344.48126Q52.784374 344.48126 53.45625 344.95Q54.20625 345.48126 54.20625 346.34064Q54.20625 347.29376 53.565624 347.9344Q52.925 348.575 51.940624 348.575ZM47.14375 340.21564Q46.95625 340.21564 46.784374 340.34064Q46.628124 340.45 46.628124 340.575Q46.628124 340.91876 46.753124 341.09064Q46.89375 341.2469 47.14375 341.2469Q47.409374 341.2469 47.596874 341.15314Q47.784374 341.04376 47.784374 340.91876Q47.784374 340.575 47.6125 340.40314Q47.45625 340.21564 47.14375 340.21564ZM51.925 345.85626Q51.596874 345.85626 51.440624 346.0594Q51.284374 346.2469 51.284374 346.65314Q51.284374 346.91876 51.471874 347.0594Q51.675 347.1844 52.065624 347.1844Q52.45625 347.1844 52.596874 346.9969Q52.753124 346.8094 52.753124 346.34064Q52.753124 346.15314 52.503124 346.0125Q52.26875 345.85626 51.925 345.85626Z" fill-rule="nonzero"/><path stroke="#757575" stroke-width="1.0" stroke-linecap="butt" d="M18.55 332.95L144.73334 332.95L261.03418 339.52792" fill-rule="nonzero"/><path fill="#9e9e9e" d="M263.03418 339.52792C263.03418 338.42337 262.13873 337.52792 261.03418 337.52792C259.9296 337.52792 259.03418 338.42337 259.03418 339.52792C259.03418 340.6325 259.9296 341.52792 261.03418 341.52792C262.13873 341.52792 263.03418 340.6325 263.03418 339.52792" fill-rule="nonzero"/><path fill="#000000" d="M555.6375 162.34517Q555.4969 162.34517 555.34064 162.2983Q554.59064 162.0483 553.4969 162.0483Q553.1375 162.0483 552.66876 162.09517Q552.2 162.14204 551.6375 162.2358Q551.65314 163.3608 551.6375 164.1733Q552.52814 163.95454 553.10626 163.95454Q554.2 163.95454 555.0125 164.0483Q555.7625 164.14204 555.7625 164.84517Q555.7625 165.18892 555.52814 165.4233Q555.29376 165.64204 554.9344 165.64204Q554.6375 165.64204 554.02814 165.59517Q553.41876 165.5483 553.10626 165.5483Q552.6844 165.5483 551.6375 165.82954L551.6375 169.50142Q551.6375 169.84517 551.3719 170.06392Q551.10626 170.2983 550.7625 170.2983Q550.41876 170.2983 550.2 170.06392Q549.9969 169.84517 549.9969 169.50142L549.9969 162.78267Q549.9969 162.5483 549.9969 162.09517Q550.0125 161.62642 550.0125 161.39204Q550.0125 161.0483 550.2469 160.82954Q550.48126 160.59517 550.825 160.59517Q551.04376 160.59517 551.21564 160.68892Q551.90314 160.56392 552.46564 160.51704Q553.04376 160.45454 553.4969 160.45454Q554.16876 160.45454 555.16876 160.7358Q556.45 161.07954 556.45 161.53267Q556.45 161.8608 556.2 162.1108Q555.96564 162.34517 555.6375 162.34517ZM558.85626 168.81392Q558.85626 169.9233 558.04376 169.9233Q557.7 169.9233 557.46564 169.70454Q557.23126 169.4858 557.23126 169.12642L557.23126 161.01704Q557.23126 160.68892 557.48126 160.47017Q557.71564 160.26704 558.0594 160.26704Q558.40314 160.26704 558.6219 160.4858Q558.85626 160.68892 558.85626 161.01704L558.85626 168.81392ZM561.3875 162.62642Q561.0125 162.62642 560.73126 162.37642Q560.46564 162.12642 560.46564 161.76704Q560.46564 161.39204 560.73126 161.14204Q561.0125 160.89204 561.3875 160.89204Q561.7625 160.89204 562.02814 161.14204Q562.3094 161.39204 562.3094 161.76704Q562.3094 162.12642 562.02814 162.37642Q561.7625 162.62642 561.3875 162.62642ZM561.8875 166.9233Q561.8875 167.25142 561.90314 168.00142Q561.91876 168.7358 561.91876 169.06392Q561.91876 169.40767 561.6844 169.62642Q561.46564 169.84517 561.1219 169.84517Q560.7625 169.84517 560.52814 169.62642Q560.3094 169.40767 560.3094 169.06392Q560.3094 168.7358 560.27814 168.00142Q560.2625 167.25142 560.2625 166.9233Q560.2625 166.40767 560.325 165.62642Q560.3875 164.82954 560.3875 164.31392Q560.3875 163.97017 560.60626 163.75142Q560.84064 163.53267 561.1844 163.53267Q561.54376 163.53267 561.7625 163.75142Q561.9969 163.97017 561.9969 164.31392Q561.9969 164.82954 561.9344 165.62642Q561.8875 166.40767 561.8875 166.9233ZM568.48126 166.1733Q568.23126 167.56392 568.1844 169.07954Q568.1219 170.9858 567.5594 171.82954Q566.79376 172.9858 564.84064 172.9858Q562.5594 172.9858 562.5594 172.07954Q562.5594 171.75142 562.7625 171.5483Q562.96564 171.3608 563.29376 171.3608Q563.5594 171.3608 564.04376 171.45454Q564.54376 171.5483 564.9344 171.5483Q565.8094 171.5483 566.21564 171.01704Q566.6219 170.50142 566.6844 169.3608Q566.3875 169.6733 566.0125 169.81392Q565.6375 169.97017 565.2 169.97017Q564.02814 169.97017 563.29376 169.22017Q562.575 168.45454 562.575 167.26704Q562.575 165.6733 563.54376 164.68892Q564.54376 163.6733 566.2625 163.6733Q566.8094 163.6733 567.2 163.81392Q567.60626 163.93892 567.85626 164.22017Q568.60626 164.2983 568.60626 165.09517Q568.60626 165.4858 568.48126 166.1733ZM566.2 165.00142Q565.21564 165.00142 564.66876 165.65767Q564.16876 166.25142 564.16876 167.18892Q564.16876 167.89204 564.4344 168.25142Q564.7 168.59517 565.23126 168.59517Q565.71564 168.59517 566.2 168.03267Q566.65314 167.51704 566.71564 167.00142Q566.825 166.43892 566.98126 165.2358Q566.77814 165.12642 566.575 165.06392Q566.3875 165.00142 566.2 165.00142ZM570.79376 164.31392Q571.21564 163.89204 571.7 163.68892Q572.2 163.47017 572.7469 163.47017Q573.7469 163.47017 574.2 164.03267Q574.52814 164.45454 574.59064 165.32954Q574.6219 166.0483 574.65314 166.78267Q574.7469 167.72017 574.77814 167.9233Q574.85626 168.57954 574.96564 169.06392Q574.9969 169.18892 574.9969 169.28267Q574.9969 169.6108 574.7469 169.81392Q574.4969 170.03267 574.16876 170.03267Q573.575 170.03267 573.40314 169.45454Q573.2625 168.97017 573.1375 168.1108Q573.04376 167.28267 573.04376 166.75142Q573.04376 166.6108 573.0594 166.31392Q573.075 166.01704 573.075 165.87642Q573.075 165.43892 573.0594 165.3608Q572.9969 165.0483 572.7469 165.0483Q572.10626 165.0483 571.575 165.64204Q571.3094 165.93892 570.84064 166.78267Q570.84064 168.89204 570.6375 169.32954Q570.40314 169.81392 569.90314 169.81392Q569.575 169.81392 569.3094 169.59517Q569.0594 169.37642 569.0594 169.0483Q569.0594 168.93892 569.1375 168.7358Q569.16876 168.6108 569.2 167.15767Q569.16876 165.9858 569.21564 163.2358L569.23126 163.0483Q569.2625 162.3608 569.2625 162.12642Q569.2625 161.93892 569.2 161.59517Q569.15314 161.2358 569.15314 161.0483Q569.15314 160.72017 569.3875 160.50142Q569.6219 160.28267 569.96564 160.28267Q570.54376 160.28267 570.7469 160.90767Q570.85626 161.25142 570.85626 161.9858Q570.85626 162.56392 570.825 163.1733Q570.79376 163.75142 570.79376 164.31392ZM580.1844 164.95454Q580.0594 164.95454 579.8875 164.95454Q579.73126 164.93892 579.60626 164.93892Q579.3719 164.93892 579.04376 164.9858Q579.15314 167.34517 579.15314 168.07954Q579.15314 168.15767 579.15314 168.3608Q579.16876 168.56392 579.16876 168.70454Q579.16876 170.0483 578.3094 170.0483Q577.9969 170.0483 577.7625 169.84517Q577.4969 169.64204 577.4969 169.31392Q577.4969 169.1108 577.5125 168.68892Q577.54376 168.26704 577.54376 168.0483Q577.54376 167.34517 577.4344 165.01704Q577.075 165.00142 576.325 164.9233Q575.59064 164.84517 575.59064 164.15767Q575.59064 163.82954 575.8094 163.6108Q576.04376 163.37642 576.3875 163.37642Q576.60626 163.37642 577.3875 163.45454Q577.3875 163.26704 577.35626 162.82954Q577.34064 162.45454 577.34064 162.25142Q577.34064 161.9233 577.575 161.70454Q577.825 161.4858 578.15314 161.4858Q579.02814 161.4858 579.02814 162.93892L579.0125 163.4233Q579.3719 163.37642 579.60626 163.37642Q580.27814 163.37642 580.52814 163.45454Q580.9969 163.62642 580.9969 164.1733Q580.9969 164.51704 580.7625 164.7358Q580.54376 164.95454 580.1844 164.95454Z" fill-rule="nonzero"/><path fill="#9e9e9e" d="M549.71564 188.25142L547.3719 188.25142Q545.4969 188.25142 545.4969 187.4858Q545.4969 187.15767 545.825 186.76704Q546.09064 186.45454 546.3719 186.14204Q547.3094 184.7983 549.2469 182.14204Q549.7 181.53267 550.4344 181.53267Q550.77814 181.53267 551.02814 181.70454Q551.34064 181.9233 551.34064 182.2983L551.34064 186.70454Q552.10626 186.7358 552.3719 186.8608Q552.65314 187.01704 552.65314 187.4858Q552.65314 187.97017 552.2 188.15767Q551.8875 188.28267 551.34064 188.25142Q551.35626 189.09517 551.34064 190.07954Q551.325 190.40767 551.1219 190.62642Q550.91876 190.82954 550.5594 190.82954Q549.66876 190.82954 549.71564 189.65767L549.71564 188.25142ZM549.71564 184.07954Q549.15314 184.97017 547.96564 186.70454L549.71564 186.70454L549.71564 184.07954ZM557.825 185.9233Q559.02814 186.59517 559.02814 188.07954Q559.02814 189.28267 558.1375 190.1108Q557.2625 190.93892 555.9969 190.93892Q555.0594 190.93892 554.29376 190.56392Q553.41876 190.1108 553.1219 189.2983Q553.075 189.1733 553.075 189.03267Q553.075 188.70454 553.34064 188.4858Q553.575 188.28267 553.90314 188.28267Q554.2625 188.28267 554.4969 188.57954Q554.8719 189.07954 554.91876 189.12642Q555.29376 189.4233 555.9969 189.4233Q556.5594 189.4233 556.96564 189.09517Q557.3875 188.75142 557.3875 188.28267Q557.3875 186.82954 555.4344 186.64204Q554.5594 186.5483 554.5594 185.90767Q554.5594 185.4233 555.23126 185.20454Q555.8719 185.06392 556.4969 184.9233Q556.8875 184.7983 557.09064 184.59517Q557.29376 184.39204 557.29376 184.12642Q557.325 183.25142 555.9344 183.25142Q555.48126 183.25142 554.9344 183.59517Q554.3875 183.93892 554.1844 183.93892Q553.85626 183.93892 553.6219 183.70454Q553.3875 183.47017 553.3875 183.15767Q553.3875 182.65767 554.3719 182.1733Q555.2469 181.7358 555.79376 181.7358Q557.1219 181.7358 557.9344 182.2983Q558.825 182.93892 558.825 184.1108Q558.825 184.75142 558.575 185.20454Q558.325 185.65767 557.825 185.9233ZM562.02814 191.28267Q561.6375 191.28267 561.35626 191.03267Q561.075 190.7983 561.075 190.4858Q561.075 190.1733 561.35626 189.93892Q561.6375 189.68892 562.02814 189.68892Q562.45 189.68892 562.71564 189.9233Q562.9969 190.15767 562.9969 190.4858Q562.9969 190.7983 562.71564 191.03267Q562.4344 191.28267 562.02814 191.28267ZM569.1844 183.43892Q568.52814 183.43892 566.73126 183.39204Q566.29376 183.39204 565.40314 183.34517Q564.6219 183.28267 564.6219 182.59517Q564.6219 182.26704 564.85626 182.0483Q565.09064 181.82954 565.4344 181.82954Q566.16876 181.82954 567.65314 181.87642Q569.1375 181.9233 569.8719 181.9233L570.95 181.9233Q571.2625 181.9233 571.4969 182.0483Q571.79376 182.20454 571.79376 182.50142Q571.79376 182.81392 571.45 183.26704Q571.15314 183.59517 570.85626 183.9233Q570.10626 184.75142 569.48126 185.95454Q569.27814 186.32954 568.4344 188.14204Q568.325 188.39204 567.9344 189.45454Q567.6375 190.26704 567.34064 190.72017Q567.10626 191.06392 566.6844 191.06392Q566.35626 191.06392 566.10626 190.84517Q565.85626 190.62642 565.85626 190.2983Q565.85626 190.0483 566.2469 189.12642Q566.8875 187.65767 567.5125 186.1733Q568.325 184.45454 569.1844 183.43892ZM574.04376 184.8608Q573.1219 184.8608 572.575 184.2358Q572.075 183.65767 572.075 182.7983Q572.075 182.14204 572.7625 181.57954Q573.40314 181.0483 574.0594 181.0483Q575.02814 181.0483 575.59064 181.6733Q576.1375 182.25142 576.1375 183.14204Q576.1375 183.93892 575.45 184.43892Q574.84064 184.8608 574.04376 184.8608ZM578.8875 182.37642Q578.66876 182.70454 578.41876 183.2358Q578.075 184.01704 578.0125 184.14204Q577.6219 184.9233 576.85626 186.50142Q576.84064 186.56392 575.54376 189.15767Q575.35626 189.59517 574.95 190.43892Q574.71564 190.84517 574.29376 190.84517Q574.0125 190.84517 573.77814 190.65767Q573.5594 190.45454 573.5594 190.1733Q573.5594 189.8608 574.45 188.09517L575.52814 185.97017Q576.075 184.8608 577.10626 182.62642Q577.66876 181.26704 578.27814 181.26704Q578.575 181.26704 578.79376 181.47017Q579.02814 181.6733 579.02814 181.97017Q579.02814 182.15767 578.8875 182.37642ZM578.84064 190.7983Q577.95 190.7983 577.35626 190.26704Q576.73126 189.7358 576.73126 188.87642Q576.73126 187.97017 577.2625 187.3608Q577.85626 186.70454 578.825 186.70454Q579.6844 186.70454 580.35626 187.1733Q581.10626 187.70454 581.10626 188.56392Q581.10626 189.51704 580.46564 190.15767Q579.825 190.7983 578.84064 190.7983ZM574.04376 182.43892Q573.85626 182.43892 573.6844 182.56392Q573.52814 182.6733 573.52814 182.7983Q573.52814 183.14204 573.65314 183.31392Q573.79376 183.47017 574.04376 183.47017Q574.3094 183.47017 574.4969 183.37642Q574.6844 183.26704 574.6844 183.14204Q574.6844 182.7983 574.5125 182.62642Q574.35626 182.43892 574.04376 182.43892ZM578.825 188.07954Q578.4969 188.07954 578.34064 188.28267Q578.1844 188.47017 578.1844 188.87642Q578.1844 189.14204 578.3719 189.28267Q578.575 189.40767 578.96564 189.40767Q579.35626 189.40767 579.4969 189.22017Q579.65314 189.03267 579.65314 188.56392Q579.65314 188.37642 579.40314 188.2358Q579.16876 188.07954 578.825 188.07954Z" fill-rule="nonzero"/><path stroke="#757575" stroke-width="1.0" stroke-linecap="butt" d="M581.45 175.1733L455.26666 175.1733L439.00943 175.1733" fill-rule="nonzero"/><path fill="#9e9e9e" d="M441.00943 175.1733C441.00943 174.06873 440.114 173.1733 439.00943 173.1733C437.90488 173.1733 437.00943 174.06873 437.00943 175.1733C437.00943 176.27786 437.90488 177.1733 439.00943 177.1733C440.114 177.1733 441.00943 176.27786 441.00943 175.1733" fill-rule="nonzero"/><path fill="#757575" d="M30.128124 23.3L30.26875 26.409374L29.89375 26.409374Q29.784374 25.596874 29.6125 25.2375Q29.3 24.675 28.8 24.409374Q28.3 24.14375 27.471874 24.14375L25.6125 24.14375L25.6125 34.253124Q25.6125 35.471874 25.878124 35.784374Q26.253124 36.190624 27.01875 36.190624L27.471874 36.190624L27.471874 36.55L21.8625 36.55L21.8625 36.190624L22.33125 36.190624Q23.175 36.190624 23.51875 35.675Q23.7375 35.3625 23.7375 34.253124L23.7375 24.14375L22.14375 24.14375Q21.221874 24.14375 20.83125 24.26875Q20.315624 24.45625 19.95625 24.9875Q19.596874 25.51875 19.534374 26.409374L19.159374 26.409374L19.315624 23.3L30.128124 23.3ZM33.8 27.346874L33.8 29.346874Q34.909374 27.346874 36.096874 27.346874Q36.628124 27.346874 36.971874 27.675Q37.33125 27.9875 37.33125 28.425Q37.33125 28.8 37.08125 29.065624Q36.83125 29.33125 36.471874 29.33125Q36.14375 29.33125 35.70625 29.003124Q35.284374 28.659374 35.08125 28.659374Q34.909374 28.659374 34.70625 28.846874Q34.26875 29.253124 33.8 30.175L33.8 34.45625Q33.8 35.20625 33.971874 35.58125Q34.1125 35.846874 34.425 36.01875Q34.753124 36.190624 35.3625 36.190624L35.3625 36.55L30.76875 36.55L30.76875 36.190624Q31.45625 36.190624 31.784374 35.9875Q32.034374 35.83125 32.128124 35.4875Q32.175 35.315624 32.175 34.534374L32.175 31.065624Q32.175 29.503124 32.1125 29.20625Q32.05 28.909374 31.878124 28.784374Q31.70625 28.64375 31.45625 28.64375Q31.159374 28.64375 30.76875 28.784374L30.675 28.440624L33.378124 27.346874L33.8 27.346874ZM43.2375 35.253124Q41.8625 36.33125 41.51875 36.4875Q40.9875 36.7375 40.39375 36.7375Q39.471874 36.7375 38.8625 36.1125Q38.26875 35.471874 38.26875 34.425Q38.26875 33.76875 38.55 33.3Q38.95625 32.628124 39.940624 32.05Q40.940624 31.45625 43.2375 30.628124L43.2375 30.26875Q43.2375 28.925 42.815624 28.440624Q42.39375 27.940624 41.58125 27.940624Q40.971874 27.940624 40.6125 28.26875Q40.2375 28.596874 40.2375 29.034374L40.253124 29.596874Q40.253124 30.05 40.01875 30.3Q39.8 30.534374 39.425 30.534374Q39.065624 30.534374 38.83125 30.284374Q38.6125 30.01875 38.6125 29.58125Q38.6125 28.753124 39.471874 28.05Q40.33125 27.346874 41.878124 27.346874Q43.065624 27.346874 43.83125 27.7375Q44.409374 28.05 44.675 28.690624Q44.8625 29.1125 44.8625 30.409374L44.8625 33.440624Q44.8625 34.721874 44.909374 35.01875Q44.95625 35.3 45.065624 35.39375Q45.175 35.4875 45.33125 35.4875Q45.4875 35.4875 45.596874 35.425Q45.8 35.3 46.39375 34.70625L46.39375 35.253124Q45.3 36.721874 44.3 36.721874Q43.815624 36.721874 43.534374 36.39375Q43.253124 36.065624 43.2375 35.253124ZM43.2375 34.628124L43.2375 31.221874Q41.76875 31.8 41.346874 32.05Q40.565624 32.471874 40.2375 32.940624Q39.909374 33.409374 39.909374 33.971874Q39.909374 34.675 40.315624 35.14375Q40.7375 35.596874 41.284374 35.596874Q42.034374 35.596874 43.2375 34.628124ZM49.784374 29.2375Q51.3625 27.346874 52.784374 27.346874Q53.51875 27.346874 54.034374 27.70625Q54.565624 28.065624 54.878124 28.909374Q55.096874 29.503124 55.096874 30.70625L55.096874 34.534374Q55.096874 35.378124 55.2375 35.675Q55.346874 35.925 55.58125 36.065624Q55.815624 36.190624 56.45625 36.190624L56.45625 36.55L52.034374 36.55L52.034374 36.190624L52.221874 36.190624Q52.846874 36.190624 53.096874 36.003124Q53.346874 35.815624 53.440624 35.440624Q53.4875 35.3 53.4875 34.534374L53.4875 30.8625Q53.4875 29.64375 53.159374 29.096874Q52.846874 28.534374 52.096874 28.534374Q50.940624 28.534374 49.784374 29.815624L49.784374 34.534374Q49.784374 35.440624 49.89375 35.64375Q50.034374 35.940624 50.26875 36.065624Q50.503124 36.190624 51.2375 36.190624L51.2375 36.55L46.815624 36.55L46.815624 36.190624L47.003124 36.190624Q47.690624 36.190624 47.925 35.846874Q48.175 35.503124 48.175 34.534374L48.175 31.20625Q48.175 29.596874 48.096874 29.253124Q48.01875 28.89375 47.8625 28.76875Q47.721874 28.64375 47.471874 28.64375Q47.190624 28.64375 46.815624 28.784374L46.675 28.440624L49.3625 27.346874L49.784374 27.346874L49.784374 29.2375ZM61.95625 27.346874L61.95625 30.39375L61.628124 30.39375Q61.26875 28.95625 60.675 28.440624Q60.096874 27.909374 59.20625 27.909374Q58.51875 27.909374 58.096874 28.284374Q57.675 28.64375 57.675 29.08125Q57.675 29.628124 57.9875 30.01875Q58.3 30.409374 59.221874 30.8625L60.64375 31.565624Q62.628124 32.51875 62.628124 34.1125Q62.628124 35.33125 61.70625 36.08125Q60.784374 36.83125 59.64375 36.83125Q58.815624 36.83125 57.76875 36.534374Q57.440624 36.425 57.2375 36.425Q57.01875 36.425 56.89375 36.690624L56.565624 36.690624L56.565624 33.4875L56.89375 33.4875Q57.159374 34.8625 57.925 35.565624Q58.70625 36.253124 59.659374 36.253124Q60.33125 36.253124 60.753124 35.8625Q61.190624 35.45625 61.190624 34.89375Q61.190624 34.221874 60.70625 33.76875Q60.2375 33.3 58.815624 32.596874Q57.409374 31.89375 56.971874 31.33125Q56.534374 30.784374 56.534374 29.925Q56.534374 28.83125 57.284374 28.096874Q58.034374 27.346874 59.2375 27.346874Q59.76875 27.346874 60.51875 27.565624Q61.01875 27.70625 61.190624 27.70625Q61.346874 27.70625 61.425 27.64375Q61.51875 27.58125 61.628124 27.346874L61.95625 27.346874ZM63.534374 28.4875L66.28438 27.378124L66.65938 27.378124L66.65938 29.471874Q67.34688 28.284374 68.05 27.815624Q68.75313 27.346874 69.51875 27.346874Q70.8625 27.346874 71.76875 28.39375Q72.8625 29.690624 72.8625 31.753124Q72.8625 34.065624 71.53438 35.58125Q70.44063 36.83125 68.78438 36.83125Q68.06563 36.83125 67.53438 36.6125Q67.14375 36.471874 66.65938 36.034374L66.65938 38.753124Q66.65938 39.675 66.76875 39.925Q66.87813 40.175 67.15938 40.315624Q67.44063 40.471874 68.175 40.471874L68.175 40.83125L63.4875 40.83125L63.4875 40.471874L63.721874 40.471874Q64.26875 40.471874 64.64375 40.26875Q64.83125 40.159374 64.925 39.909374Q65.03438 39.675 65.03438 38.70625L65.03438 30.2375Q65.03438 29.378124 64.95625 29.14375Q64.87813 28.909374 64.70625 28.8Q64.53438 28.675 64.2375 28.675Q64.00313 28.675 63.64375 28.8L63.534374 28.4875ZM66.65938 30.05L66.65938 33.378124Q66.65938 34.471874 66.7375 34.815624Q66.87813 35.378124 67.40938 35.815624Q67.94063 36.2375 68.75313 36.2375Q69.7375 36.2375 70.33125 35.471874Q71.12813 34.471874 71.12813 32.675Q71.12813 30.628124 70.2375 29.51875Q69.6125 28.753124 68.75313 28.753124Q68.28438 28.753124 67.81563 28.9875Q67.47188 29.159374 66.65938 30.05ZM78.55 27.346874Q80.58125 27.346874 81.81563 28.878124Q82.8625 30.20625 82.8625 31.909374Q82.8625 33.1125 82.28438 34.346874Q81.70625 35.565624 80.69063 36.20625Q79.69063 36.83125 78.44063 36.83125Q76.425 36.83125 75.2375 35.20625Q74.22188 33.846874 74.22188 32.159374Q74.22188 30.940624 74.83125 29.721874Q75.44063 28.503124 76.44063 27.925Q77.44063 27.346874 78.55 27.346874ZM78.25313 27.971874Q77.7375 27.971874 77.20625 28.284374Q76.69063 28.596874 76.3625 29.3625Q76.03438 30.128124 76.03438 31.346874Q76.03438 33.3 76.81563 34.721874Q77.59688 36.128124 78.8625 36.128124Q79.81563 36.128124 80.425 35.346874Q81.03438 34.565624 81.03438 32.659374Q81.03438 30.284374 80.01875 28.909374Q79.31563 27.971874 78.25313 27.971874ZM86.8 27.346874L86.8 29.346874Q87.90938 27.346874 89.09688 27.346874Q89.62813 27.346874 89.97188 27.675Q90.33125 27.9875 90.33125 28.425Q90.33125 28.8 90.08125 29.065624Q89.83125 29.33125 89.47188 29.33125Q89.14375 29.33125 88.70625 29.003124Q88.28438 28.659374 88.08125 28.659374Q87.90938 28.659374 87.70625 28.846874Q87.26875 29.253124 86.8 30.175L86.8 34.45625Q86.8 35.20625 86.97188 35.58125Q87.1125 35.846874 87.425 36.01875Q87.75313 36.190624 88.3625 36.190624L88.3625 36.55L83.76875 36.55L83.76875 36.190624Q84.45625 36.190624 84.78438 35.9875Q85.03438 35.83125 85.12813 35.4875Q85.175 35.315624 85.175 34.534374L85.175 31.065624Q85.175 29.503124 85.1125 29.20625Q85.05 28.909374 84.87813 28.784374Q84.70625 28.64375 84.45625 28.64375Q84.15938 28.64375 83.76875 28.784374L83.675 28.440624L86.37813 27.346874L86.8 27.346874ZM93.76875 24.659374L93.76875 27.596874L95.8625 27.596874L95.8625 28.284374L93.76875 28.284374L93.76875 34.08125Q93.76875 34.95625 94.01875 35.26875Q94.26875 35.565624 94.65938 35.565624Q94.9875 35.565624 95.28438 35.3625Q95.59688 35.159374 95.75313 34.76875L96.14375 34.76875Q95.8 35.721874 95.175 36.20625Q94.55 36.690624 93.87813 36.690624Q93.425 36.690624 92.9875 36.440624Q92.56563 36.190624 92.3625 35.7375Q92.15938 35.26875 92.15938 34.3L92.15938 28.284374L90.75313 28.284374L90.75313 27.971874Q91.28438 27.753124 91.84688 27.2375Q92.40938 26.721874 92.84688 26.01875Q93.06563 25.64375 93.47188 24.659374L93.76875 24.659374Z" fill-rule="nonzero"/></svg>